<svg version="1.1" id="Layer_1" xmlns="http://www.w3.org/2000/svg" xmlns:xlink="http://www.w3.org/1999/xlink" x="0px" y="0px"
	 width="100%" viewBox="0 0 450 450" enable-background="new 0 0 450 450" xml:space="preserve">
<path fill="#FFFFFF" opacity="1.000000" stroke="none" 
	d="
M1.000000,218.000000 
	C1.000000,145.333359 1.000000,73.166710 1.000000,1.000048 
	C150.999924,1.000032 300.999847,1.000032 450.999817,1.000016 
	C450.999878,150.999893 450.999878,300.999786 450.999939,450.999756 
	C301.000153,450.999817 151.000305,450.999817 1.000234,450.999908 
	C1.000000,373.500000 1.000000,296.000000 1.000000,218.000000 
M164.006668,424.155823 
	C164.113861,425.641937 164.221054,427.128082 164.328262,428.614197 
	C178.042221,411.477814 183.207703,390.005707 197.182266,371.642700 
	C201.949722,393.254456 198.251587,414.496674 205.441223,435.208038 
	C206.795044,431.870758 208.096039,429.312225 208.887115,426.604736 
	C212.976059,412.609863 216.867599,398.557129 220.984665,384.570709 
	C222.038406,380.990967 223.239288,377.230896 227.951569,376.274994 
	C233.888626,396.751007 235.699585,418.469025 245.580734,437.912872 
	C251.740509,417.238892 247.993713,395.497131 254.225815,374.796295 
	C259.742645,384.004608 264.364716,393.388885 269.078888,402.726685 
	C273.740173,411.959747 278.494415,421.145844 283.207886,430.352539 
	C283.909912,430.115723 284.611908,429.878937 285.313934,429.642120 
	C286.429077,408.273163 280.036011,387.503052 278.882904,366.285492 
	C283.619781,364.978058 285.253082,368.482483 287.060181,370.932648 
	C294.881958,381.537872 302.350861,392.403809 310.197021,402.990417 
	C313.670197,407.676697 317.734833,411.924683 321.530945,416.371613 
	C322.063965,416.097961 322.596985,415.824280 323.130005,415.550629 
	C322.793335,413.226074 322.770630,410.801758 322.068695,408.593323 
	C317.703400,394.859741 313.091766,381.204102 308.771881,367.456604 
	C307.330536,362.869720 306.506653,358.088837 305.400513,353.396606 
	C305.881012,353.131012 306.361481,352.865417 306.841980,352.599823 
	C324.546021,364.109009 337.367615,381.716949 355.739014,392.737915 
	C353.985168,387.100464 351.750916,381.876587 349.061859,376.898346 
	C342.889862,365.472137 336.403687,354.215302 330.263977,342.772278 
	C328.898499,340.227356 328.436371,337.197723 327.558319,334.391266 
	C328.172150,333.871490 328.785980,333.351715 329.399780,332.831940 
	C347.230774,343.792664 365.061768,354.753387 382.892761,365.714111 
	C383.441650,365.068665 383.990540,364.423248 384.539429,363.777802 
	C373.036865,345.544525 357.154541,330.822723 342.574310,313.500916 
	C346.337646,313.500916 349.503723,312.807465 352.211884,313.627075 
	C361.445099,316.421417 370.509857,319.769714 379.652557,322.866394 
	C388.235474,325.773499 396.835663,328.629700 405.428253,331.508301 
	C405.807587,330.855469 406.186890,330.202606 406.566193,329.549774 
	C392.938202,314.191254 375.640228,302.895538 359.484161,288.823669 
	C362.091675,288.453400 363.979462,287.803436 365.780304,287.990570 
	C379.042114,289.368469 392.279480,290.980621 405.539948,292.372559 
	C410.759979,292.920502 416.019287,293.094421 421.260712,293.438660 
	C421.410858,292.868439 421.560974,292.298218 421.711121,291.727997 
	C418.771118,289.669067 415.977814,287.349426 412.864746,285.598206 
	C401.811401,279.380249 390.579224,273.478516 379.564850,267.194031 
	C375.571320,264.915405 371.999695,261.897308 368.235535,259.216644 
	C368.429932,258.607513 368.624329,257.998383 368.818695,257.389221 
	C375.105835,256.589294 381.373138,255.426590 387.685150,255.080780 
	C395.662292,254.643738 403.688660,255.126572 411.669250,254.724792 
	C417.053833,254.453735 422.395966,253.339798 427.757111,252.602921 
	C427.777191,252.091507 427.797302,251.580109 427.817413,251.068695 
	C426.283691,250.204575 424.843689,249.045105 423.201141,248.523941 
	C411.939392,244.950714 400.602081,241.613861 389.358246,237.986511 
	C383.498016,236.095947 377.260651,234.743652 372.502411,228.887939 
	C375.047424,227.814713 377.148254,226.621643 379.406677,226.026443 
	C393.670807,222.267227 407.986206,218.701813 422.241852,214.911453 
	C424.695892,214.258957 426.945129,212.836105 429.288940,211.769104 
	C429.170074,210.935425 429.051208,210.101730 428.932312,209.268051 
	C409.415771,207.077789 389.899200,204.887527 369.578247,202.606979 
	C371.041840,200.811768 371.969910,199.088196 373.395844,198.045425 
	C376.425507,195.829880 379.564270,193.663025 382.922638,192.014877 
	C397.442871,184.888992 412.058411,177.957306 427.632050,170.478195 
	C423.970306,169.910858 421.120178,168.914474 418.368958,169.137589 
	C405.408783,170.188599 392.488739,171.737701 379.527069,172.764435 
	C373.851318,173.214005 368.110291,172.840042 362.398926,172.840042 
	C362.126801,172.244339 361.854675,171.648636 361.582520,171.052933 
	C365.991943,167.024033 370.173859,162.705399 374.858398,159.026855 
	C384.459290,151.487808 394.410736,144.395676 404.028778,136.877609 
	C406.258301,135.134857 407.728760,132.421051 409.548523,130.154068 
	C409.166321,129.721558 408.784149,129.289032 408.401978,128.856522 
	C388.107361,133.309326 369.423126,143.720795 347.664612,146.376038 
	C357.412354,127.593452 374.916016,115.684174 383.589233,97.185005 
	C378.785278,98.526749 374.444397,100.323189 370.286407,102.473274 
	C359.054749,108.281128 347.975067,114.388504 336.655548,120.015984 
	C334.312225,121.180962 331.192474,120.784126 327.204895,121.250443 
	C337.265198,102.368271 350.513763,87.014481 355.842285,67.192329 
	C348.853760,71.290932 342.644623,76.050385 336.604614,81.015579 
	C328.183685,87.938042 319.959839,95.101875 311.478455,101.947876 
	C309.862793,103.252029 307.443146,103.560165 304.247589,104.757607 
	C311.608551,82.176033 321.930695,62.309685 326.425385,39.045937 
	C324.124756,40.355927 322.925446,40.675556 322.296448,41.455254 
	C317.834625,46.986004 313.421326,52.559105 309.123718,58.218296 
	C302.947754,66.350922 297.027466,74.682549 290.685303,82.681252 
	C288.715363,85.165749 285.730286,86.845352 283.209930,88.893440 
	C282.728271,88.507011 282.246613,88.120583 281.764923,87.734146 
	C282.061096,66.140106 288.330627,44.988358 287.875092,23.338652 
	C287.205780,23.093405 286.536438,22.848156 285.867126,22.602909 
	C276.118317,41.537796 266.369537,60.472683 256.620728,79.407570 
	C255.942673,79.213432 255.264603,79.019287 254.586548,78.825150 
	C249.882858,58.693756 253.863495,37.293018 246.035477,17.385611 
	C242.620651,27.301022 239.962494,37.368454 236.990952,47.342529 
	C234.567459,55.477173 231.909348,63.551094 229.010635,71.526688 
	C228.476868,72.995354 226.295593,73.865242 224.874756,75.011513 
	C224.216141,73.657188 223.303680,72.367874 222.937592,70.938629 
	C218.548386,53.802963 214.291107,36.633335 209.845871,19.512436 
	C209.295654,17.393261 207.857819,15.504543 206.831299,13.509036 
	C200.222900,34.630589 203.971893,56.413364 198.620636,77.032272 
	C198.046387,77.164612 197.472137,77.296951 196.897888,77.429291 
	C187.581757,58.819279 178.265640,40.209267 168.949509,21.599251 
	C168.153793,21.858194 167.358078,22.117138 166.562347,22.376081 
	C165.655518,43.697060 171.913315,64.449081 172.435715,86.233879 
	C169.987961,85.365150 167.565613,84.375206 166.231140,82.577660 
	C158.962433,72.786613 152.102463,62.691753 144.816681,52.913914 
	C140.350571,46.920208 135.373138,41.307522 130.625320,35.523727 
	C130.029800,35.826439 129.434265,36.129150 128.838730,36.431862 
	C129.178864,38.744312 129.209335,41.155441 129.909653,43.353115 
	C134.292084,57.105701 138.927460,70.778183 143.248184,84.549637 
	C144.689484,89.143456 145.452026,93.950241 146.524857,98.659668 
	C127.293648,87.647224 114.702957,69.924301 96.282196,59.022453 
	C97.437492,63.462341 99.029968,67.536430 101.082832,71.363579 
	C108.160172,84.557785 115.461708,97.631927 122.507629,110.842590 
	C123.582367,112.857666 123.757362,115.352623 124.676300,118.886047 
	C103.661736,110.437721 88.393578,94.648453 68.141472,87.497498 
	C78.922844,106.455437 95.033936,120.982529 109.225426,138.244888 
	C105.821861,138.244888 102.831711,138.932999 100.319160,138.128845 
	C87.706055,134.091980 75.240807,129.596008 62.674896,125.407471 
	C57.339417,123.629028 51.884876,122.207787 46.484444,120.624207 
	C46.153725,121.197479 45.823006,121.770760 45.492290,122.344032 
	C59.142216,137.676743 76.416962,149.004166 92.936768,163.276352 
	C88.510628,163.627411 85.255852,164.404373 82.132034,164.044525 
	C67.750397,162.387787 53.412182,160.357437 39.041096,158.602783 
	C36.253559,158.262436 33.388885,158.553864 30.559792,158.553864 
	C46.256954,173.357513 67.766319,178.402374 84.187904,193.440460 
	C63.880882,199.741989 43.470711,194.403702 23.089783,199.647827 
	C24.938955,200.960358 25.830189,201.908310 26.923008,202.316360 
	C33.049156,204.603745 39.195450,206.844986 45.388672,208.943176 
	C55.173454,212.258118 65.032387,215.357361 74.779816,218.776352 
	C76.445755,219.360672 77.712128,221.084152 79.163086,222.281387 
	C79.031090,222.835785 78.899094,223.390182 78.767105,223.944580 
	C60.098850,228.848160 41.430603,233.751740 22.762354,238.655319 
	C22.840115,239.464523 22.917875,240.273727 22.995636,241.082932 
	C42.002579,247.251877 62.205963,245.859207 82.929207,249.052597 
	C80.534653,251.564636 79.178070,253.807114 77.189316,254.930206 
	C69.194633,259.445038 61.097485,263.802612 52.861458,267.859497 
	C43.705082,272.369720 34.356281,276.489319 25.091248,280.778931 
	C29.109100,282.132874 32.992638,283.136505 36.771751,282.834290 
	C48.100113,281.928345 59.370033,280.292419 70.698212,279.383057 
	C76.841560,278.889893 83.057037,279.295135 89.239975,279.295135 
	C89.552734,279.843201 89.865494,280.391235 90.178253,280.939301 
	C84.810204,285.652985 79.610542,290.577332 74.036232,295.032990 
	C64.744011,302.460388 55.150749,309.510834 45.843498,316.920074 
	C44.364006,318.097839 43.716713,320.321014 42.684681,322.060883 
	C44.783405,322.711334 45.750420,322.632080 46.646965,322.337952 
	C57.392498,318.812897 68.084671,315.118317 78.879539,311.752747 
	C86.901863,309.251617 95.053833,307.166321 103.148048,304.895782 
	C103.369301,305.403290 103.590546,305.910828 103.811798,306.418335 
	C103.086784,307.663513 102.509773,309.028503 101.613716,310.135193 
	C93.103767,320.645935 84.458855,331.048431 76.033241,341.625824 
	C72.919518,345.534729 70.285240,349.825531 67.432289,353.942169 
	C67.875175,354.284790 68.318054,354.627441 68.760941,354.970093 
	C69.510796,354.743195 70.323059,354.633331 71.001190,354.271851 
	C81.759529,348.537018 92.414955,342.601440 103.278236,337.074066 
	C109.686371,333.813477 115.927956,329.309448 124.384598,331.457733 
	C114.616577,349.055847 102.024071,364.655334 95.492615,383.939545 
	C97.775604,383.539093 100.023087,383.016083 101.614288,381.699738 
	C112.440239,372.743927 123.050957,363.527405 133.902466,354.603363 
	C137.650024,351.521423 141.295685,347.785034 147.239700,347.750488 
	C146.890518,349.053650 146.767593,349.691650 146.550629,350.295868 
	C140.951660,365.889221 135.258331,381.449646 129.810181,397.095459 
	C128.773911,400.071381 128.700943,403.382690 128.183502,406.539276 
	C128.815552,406.818939 129.447601,407.098602 130.079651,407.378265 
	C132.480499,405.243958 135.271530,403.413116 137.210632,400.919739 
	C143.583832,392.724823 149.543640,384.209381 155.870667,375.977203 
	C159.578995,371.152283 162.880188,365.767853 170.389191,362.405945 
	C169.802246,370.122498 169.491150,376.611725 168.780396,383.056915 
	C167.301086,396.471893 165.610168,409.863586 164.006668,424.155823 
z"/>
<path fill="#AA5D0F" opacity="1.000000" stroke="none" 
	d="
M164.006439,423.710327 
	C165.610168,409.863586 167.301086,396.471893 168.780396,383.056915 
	C169.491150,376.611725 169.802246,370.122498 170.389191,362.405945 
	C162.880188,365.767853 159.578995,371.152283 155.870667,375.977203 
	C149.543640,384.209381 143.583832,392.724823 137.210632,400.919739 
	C135.271530,403.413116 132.480499,405.243958 130.079651,407.378265 
	C129.447601,407.098602 128.815552,406.818939 128.183502,406.539276 
	C128.700943,403.382690 128.773911,400.071381 129.810181,397.095459 
	C135.258331,381.449646 140.951660,365.889221 146.550629,350.295868 
	C146.767593,349.691650 146.890518,349.053650 147.239700,347.750488 
	C141.295685,347.785034 137.650024,351.521423 133.902466,354.603363 
	C123.050957,363.527405 112.440239,372.743927 101.614288,381.699738 
	C100.023087,383.016083 97.775604,383.539093 95.492615,383.939545 
	C102.024071,364.655334 114.616577,349.055847 124.384598,331.457733 
	C115.927956,329.309448 109.686371,333.813477 103.278236,337.074066 
	C92.414955,342.601440 81.759529,348.537018 71.001190,354.271851 
	C70.323059,354.633331 69.510796,354.743195 68.760941,354.970093 
	C68.318054,354.627441 67.875175,354.284790 67.432289,353.942169 
	C70.285240,349.825531 72.919518,345.534729 76.033241,341.625824 
	C84.458855,331.048431 93.103767,320.645935 101.613716,310.135193 
	C102.509773,309.028503 103.086784,307.663513 103.811798,306.418335 
	C103.590546,305.910828 103.369301,305.403290 103.148048,304.895782 
	C95.053833,307.166321 86.901863,309.251617 78.879539,311.752747 
	C68.084671,315.118317 57.392498,318.812897 46.646965,322.337952 
	C45.750420,322.632080 44.783405,322.711334 42.684681,322.060883 
	C43.716713,320.321014 44.364006,318.097839 45.843498,316.920074 
	C55.150749,309.510834 64.744011,302.460388 74.036232,295.032990 
	C79.610542,290.577332 84.810204,285.652985 90.178253,280.939301 
	C89.865494,280.391235 89.552734,279.843201 89.239975,279.295135 
	C83.057037,279.295135 76.841560,278.889893 70.698212,279.383057 
	C59.370033,280.292419 48.100113,281.928345 36.771751,282.834290 
	C32.992638,283.136505 29.109100,282.132874 25.091248,280.778931 
	C34.356281,276.489319 43.705082,272.369720 52.861458,267.859497 
	C61.097485,263.802612 69.194633,259.445038 77.189316,254.930206 
	C79.178070,253.807114 80.534653,251.564636 82.929207,249.052597 
	C62.205963,245.859207 42.002579,247.251877 22.995636,241.082932 
	C22.917875,240.273727 22.840115,239.464523 22.762354,238.655319 
	C41.430603,233.751740 60.098850,228.848160 78.767105,223.944580 
	C78.899094,223.390182 79.031090,222.835785 79.163086,222.281387 
	C77.712128,221.084152 76.445755,219.360672 74.779816,218.776352 
	C65.032387,215.357361 55.173454,212.258118 45.388672,208.943176 
	C39.195450,206.844986 33.049156,204.603745 26.923008,202.316360 
	C25.830189,201.908310 24.938955,200.960358 23.089783,199.647827 
	C43.470711,194.403702 63.880882,199.741989 84.187904,193.440460 
	C67.766319,178.402374 46.256954,173.357513 30.559792,158.553864 
	C33.388885,158.553864 36.253559,158.262436 39.041096,158.602783 
	C53.412182,160.357437 67.750397,162.387787 82.132034,164.044525 
	C85.255852,164.404373 88.510628,163.627411 92.936768,163.276352 
	C76.416962,149.004166 59.142216,137.676743 45.492290,122.344032 
	C45.823006,121.770760 46.153725,121.197479 46.484444,120.624207 
	C51.884876,122.207787 57.339417,123.629028 62.674896,125.407471 
	C75.240807,129.596008 87.706055,134.091980 100.319160,138.128845 
	C102.831711,138.932999 105.821861,138.244888 109.225426,138.244888 
	C95.033936,120.982529 78.922844,106.455437 68.141472,87.497498 
	C88.393578,94.648453 103.661736,110.437721 124.676300,118.886047 
	C123.757362,115.352623 123.582367,112.857666 122.507629,110.842590 
	C115.461708,97.631927 108.160172,84.557785 101.082832,71.363579 
	C99.029968,67.536430 97.437492,63.462341 96.282196,59.022453 
	C114.702957,69.924301 127.293648,87.647224 146.524857,98.659668 
	C145.452026,93.950241 144.689484,89.143456 143.248184,84.549637 
	C138.927460,70.778183 134.292084,57.105701 129.909653,43.353115 
	C129.209335,41.155441 129.178864,38.744312 128.838730,36.431862 
	C129.434265,36.129150 130.029800,35.826439 130.625320,35.523727 
	C135.373138,41.307522 140.350571,46.920208 144.816681,52.913914 
	C152.102463,62.691753 158.962433,72.786613 166.231140,82.577660 
	C167.565613,84.375206 169.987961,85.365150 172.435715,86.233879 
	C171.913315,64.449081 165.655518,43.697060 166.562347,22.376081 
	C167.358078,22.117138 168.153793,21.858194 168.949509,21.599251 
	C178.265640,40.209267 187.581757,58.819279 196.897888,77.429291 
	C197.472137,77.296951 198.046387,77.164612 198.620636,77.032272 
	C203.971893,56.413364 200.222900,34.630589 206.831299,13.509036 
	C207.857819,15.504543 209.295654,17.393261 209.845871,19.512436 
	C214.291107,36.633335 218.548386,53.802963 222.937592,70.938629 
	C223.303680,72.367874 224.216141,73.657188 224.874756,75.011513 
	C226.295593,73.865242 228.476868,72.995354 229.010635,71.526688 
	C231.909348,63.551094 234.567459,55.477173 236.990952,47.342529 
	C239.962494,37.368454 242.620651,27.301022 246.035477,17.385611 
	C253.863495,37.293018 249.882858,58.693756 254.586548,78.825150 
	C255.264603,79.019287 255.942673,79.213432 256.620728,79.407570 
	C266.369537,60.472683 276.118317,41.537796 285.867126,22.602909 
	C286.536438,22.848156 287.205780,23.093405 287.875092,23.338652 
	C288.330627,44.988358 282.061096,66.140106 281.764923,87.734146 
	C282.246613,88.120583 282.728271,88.507011 283.209930,88.893440 
	C285.730286,86.845352 288.715363,85.165749 290.685303,82.681252 
	C297.027466,74.682549 302.947754,66.350922 309.123718,58.218296 
	C313.421326,52.559105 317.834625,46.986004 322.296448,41.455254 
	C322.925446,40.675556 324.124756,40.355927 326.425385,39.045937 
	C321.930695,62.309685 311.608551,82.176033 304.247589,104.757607 
	C307.443146,103.560165 309.862793,103.252029 311.478455,101.947876 
	C319.959839,95.101875 328.183685,87.938042 336.604614,81.015579 
	C342.644623,76.050385 348.853760,71.290932 355.842285,67.192329 
	C350.513763,87.014481 337.265198,102.368271 327.204895,121.250443 
	C331.192474,120.784126 334.312225,121.180962 336.655548,120.015984 
	C347.975067,114.388504 359.054749,108.281128 370.286407,102.473274 
	C374.444397,100.323189 378.785278,98.526749 383.589233,97.185005 
	C374.916016,115.684174 357.412354,127.593452 347.664612,146.376038 
	C369.423126,143.720795 388.107361,133.309326 408.401978,128.856522 
	C408.784149,129.289032 409.166321,129.721558 409.548523,130.154068 
	C407.728760,132.421051 406.258301,135.134857 404.028778,136.877609 
	C394.410736,144.395676 384.459290,151.487808 374.858398,159.026855 
	C370.173859,162.705399 365.991943,167.024033 361.582520,171.052933 
	C361.854675,171.648636 362.126801,172.244339 362.398926,172.840042 
	C368.110291,172.840042 373.851318,173.214005 379.527069,172.764435 
	C392.488739,171.737701 405.408783,170.188599 418.368958,169.137589 
	C421.120178,168.914474 423.970306,169.910858 427.632050,170.478195 
	C412.058411,177.957306 397.442871,184.888992 382.922638,192.014877 
	C379.564270,193.663025 376.425507,195.829880 373.395844,198.045425 
	C371.969910,199.088196 371.041840,200.811768 369.578247,202.606979 
	C389.899200,204.887527 409.415771,207.077789 428.932312,209.268051 
	C429.051208,210.101730 429.170074,210.935425 429.288940,211.769104 
	C426.945129,212.836105 424.695892,214.258957 422.241852,214.911453 
	C407.986206,218.701813 393.670807,222.267227 379.406677,226.026443 
	C377.148254,226.621643 375.047424,227.814713 372.502411,228.887939 
	C377.260651,234.743652 383.498016,236.095947 389.358246,237.986511 
	C400.602081,241.613861 411.939392,244.950714 423.201141,248.523941 
	C424.843689,249.045105 426.283691,250.204575 427.817413,251.068695 
	C427.797302,251.580109 427.777191,252.091507 427.757111,252.602921 
	C422.395966,253.339798 417.053833,254.453735 411.669250,254.724792 
	C403.688660,255.126572 395.662292,254.643738 387.685150,255.080780 
	C381.373138,255.426590 375.105835,256.589294 368.818695,257.389221 
	C368.624329,257.998383 368.429932,258.607513 368.235535,259.216644 
	C371.999695,261.897308 375.571320,264.915405 379.564850,267.194031 
	C390.579224,273.478516 401.811401,279.380249 412.864746,285.598206 
	C415.977814,287.349426 418.771118,289.669067 421.711121,291.727997 
	C421.560974,292.298218 421.410858,292.868439 421.260712,293.438660 
	C416.019287,293.094421 410.759979,292.920502 405.539948,292.372559 
	C392.279480,290.980621 379.042114,289.368469 365.780304,287.990570 
	C363.979462,287.803436 362.091675,288.453400 359.484161,288.823669 
	C375.640228,302.895538 392.938202,314.191254 406.566193,329.549774 
	C406.186890,330.202606 405.807587,330.855469 405.428253,331.508301 
	C396.835663,328.629700 388.235474,325.773499 379.652557,322.866394 
	C370.509857,319.769714 361.445099,316.421417 352.211884,313.627075 
	C349.503723,312.807465 346.337646,313.500916 342.574310,313.500916 
	C357.154541,330.822723 373.036865,345.544525 384.539429,363.777802 
	C383.990540,364.423248 383.441650,365.068665 382.892761,365.714111 
	C365.061768,354.753387 347.230774,343.792664 329.399780,332.831940 
	C328.785980,333.351715 328.172150,333.871490 327.558319,334.391266 
	C328.436371,337.197723 328.898499,340.227356 330.263977,342.772278 
	C336.403687,354.215302 342.889862,365.472137 349.061859,376.898346 
	C351.750916,381.876587 353.985168,387.100464 355.739014,392.737915 
	C337.367615,381.716949 324.546021,364.109009 306.841980,352.599823 
	C306.361481,352.865417 305.881012,353.131012 305.400513,353.396606 
	C306.506653,358.088837 307.330536,362.869720 308.771881,367.456604 
	C313.091766,381.204102 317.703400,394.859741 322.068695,408.593323 
	C322.770630,410.801758 322.793335,413.226074 323.130005,415.550629 
	C322.596985,415.824280 322.063965,416.097961 321.530945,416.371613 
	C317.734833,411.924683 313.670197,407.676697 310.197021,402.990417 
	C302.350861,392.403809 294.881958,381.537872 287.060181,370.932648 
	C285.253082,368.482483 283.619781,364.978058 278.882904,366.285492 
	C280.036011,387.503052 286.429077,408.273163 285.313934,429.642120 
	C284.611908,429.878937 283.909912,430.115723 283.207886,430.352539 
	C278.494415,421.145844 273.740173,411.959747 269.078888,402.726685 
	C264.364716,393.388885 259.742645,384.004608 254.225815,374.796295 
	C247.993713,395.497131 251.740509,417.238892 245.580734,437.912872 
	C235.699585,418.469025 233.888626,396.751007 227.951569,376.274994 
	C223.239288,377.230896 222.038406,380.990967 220.984665,384.570709 
	C216.867599,398.557129 212.976059,412.609863 208.887115,426.604736 
	C208.096039,429.312225 206.795044,431.870758 205.441223,435.208038 
	C198.251587,414.496674 201.949722,393.254456 197.182266,371.642700 
	C183.207703,390.005707 178.042221,411.477814 164.328262,428.614197 
	C164.221054,427.128082 164.113861,425.641937 164.006439,423.710327 
M188.946335,258.356384 
	C186.851196,265.331573 187.198563,273.198608 181.383270,279.696167 
	C180.841919,277.718536 180.407318,276.524353 180.193451,275.291840 
	C175.411118,247.731659 170.661667,220.165771 165.877975,192.605835 
	C165.367050,189.662292 165.558762,186.069534 163.914246,183.949524 
	C159.106796,177.752090 153.535004,172.147568 148.262756,166.310684 
	C149.535889,213.403076 161.368988,257.561646 180.078598,300.040466 
	C180.759232,301.585846 182.082123,302.848328 183.766235,305.142456 
	C185.202118,302.388489 186.576248,300.661072 187.040131,298.716492 
	C190.144119,285.704956 196.604080,274.309937 203.603989,263.120941 
	C204.880219,261.080963 205.750626,258.613159 206.159225,256.231506 
	C209.791016,235.062393 213.379974,213.884644 216.755051,192.673401 
	C218.122131,184.081696 218.928787,175.400833 219.990463,166.760544 
	C219.541473,166.631699 219.092484,166.502869 218.643509,166.374023 
	C213.949265,171.491623 209.090378,176.471771 204.644440,181.796692 
	C202.943298,183.834167 201.568359,186.547668 201.096176,189.144302 
	C196.956207,211.910965 193.054077,234.720886 188.946335,258.356384 
M253.714981,203.762177 
	C253.372025,201.289047 253.093719,198.804794 252.671036,196.345352 
	C252.026230,192.593430 252.391556,188.043884 250.360626,185.277161 
	C245.305374,178.390427 239.139511,172.318924 233.419571,165.920105 
	C232.678909,171.534485 232.699921,176.822693 233.575302,181.965485 
	C238.015350,208.050827 242.599670,234.112640 247.362808,260.140717 
	C247.934479,263.264618 249.413101,266.491791 251.305344,269.055511 
	C257.524902,277.482147 262.210785,286.494537 264.335571,296.836853 
	C264.865540,299.416412 266.453125,301.778687 267.554596,304.240814 
	C268.043915,304.171478 268.533234,304.102142 269.022522,304.032806 
	C291.030457,260.924103 301.587708,214.862289 304.188538,166.689484 
	C298.991577,171.489441 294.281281,176.405533 289.879883,181.584167 
	C288.471497,183.241226 287.362793,185.504059 286.994537,187.640976 
	C282.076508,216.179489 277.345093,244.750107 272.449432,273.292572 
	C272.096741,275.348877 270.829285,277.248260 269.987183,279.220612 
	C268.779266,277.269012 266.871246,275.450562 266.470886,273.345367 
	C262.120453,250.469528 258.006378,227.548737 253.714981,203.762177 
M227.138290,144.340042 
	C226.148529,144.587769 224.766220,144.505981 224.235123,145.138687 
	C221.541656,148.347549 222.611313,155.050873 226.432541,158.154449 
	C230.250534,154.010910 229.796951,149.569229 227.138290,144.340042 
z"/>
<path fill="#FDFCFA" opacity="1.000000" stroke="none" 
	d="
M189.013885,257.937195 
	C193.054077,234.720886 196.956207,211.910965 201.096176,189.144302 
	C201.568359,186.547668 202.943298,183.834167 204.644440,181.796692 
	C209.090378,176.471771 213.949265,171.491623 218.643509,166.374023 
	C219.092484,166.502869 219.541473,166.631699 219.990463,166.760544 
	C218.928787,175.400833 218.122131,184.081696 216.755051,192.673401 
	C213.379974,213.884644 209.791016,235.062393 206.159225,256.231506 
	C205.750626,258.613159 204.880219,261.080963 203.603989,263.120941 
	C196.604080,274.309937 190.144119,285.704956 187.040131,298.716492 
	C186.576248,300.661072 185.202118,302.388489 183.766235,305.142456 
	C182.082123,302.848328 180.759232,301.585846 180.078598,300.040466 
	C161.368988,257.561646 149.535889,213.403076 148.262756,166.310684 
	C153.535004,172.147568 159.106796,177.752090 163.914246,183.949524 
	C165.558762,186.069534 165.367050,189.662292 165.877975,192.605835 
	C170.661667,220.165771 175.411118,247.731659 180.193451,275.291840 
	C180.407318,276.524353 180.841919,277.718536 181.383270,279.696167 
	C187.198563,273.198608 186.851196,265.331573 189.013885,257.937195 
z"/>
<path fill="#FDFCFA" opacity="1.000000" stroke="none" 
	d="
M253.771423,204.201187 
	C258.006378,227.548737 262.120453,250.469528 266.470886,273.345367 
	C266.871246,275.450562 268.779266,277.269012 269.987183,279.220612 
	C270.829285,277.248260 272.096741,275.348877 272.449432,273.292572 
	C277.345093,244.750107 282.076508,216.179489 286.994537,187.640976 
	C287.362793,185.504059 288.471497,183.241226 289.879883,181.584167 
	C294.281281,176.405533 298.991577,171.489441 304.188538,166.689484 
	C301.587708,214.862289 291.030457,260.924103 269.022522,304.032806 
	C268.533234,304.102142 268.043915,304.171478 267.554596,304.240814 
	C266.453125,301.778687 264.865540,299.416412 264.335571,296.836853 
	C262.210785,286.494537 257.524902,277.482147 251.305344,269.055511 
	C249.413101,266.491791 247.934479,263.264618 247.362808,260.140717 
	C242.599670,234.112640 238.015350,208.050827 233.575302,181.965485 
	C232.699921,176.822693 232.678909,171.534485 233.419571,165.920105 
	C239.139511,172.318924 245.305374,178.390427 250.360626,185.277161 
	C252.391556,188.043884 252.026230,192.593430 252.671036,196.345352 
	C253.093719,198.804794 253.372025,201.289047 253.771423,204.201187 
z"/>
<path fill="#FCF9F6" opacity="1.000000" stroke="none" 
	d="
M227.427277,144.630981 
	C229.796951,149.569229 230.250534,154.010910 226.432541,158.154449 
	C222.611313,155.050873 221.541656,148.347549 224.235123,145.138687 
	C224.766220,144.505981 226.148529,144.587769 227.427277,144.630981 
z"/>
</svg>