<?xml version="1.0" encoding="UTF-8"?>
<svg version="1.1" xmlns="http://www.w3.org/2000/svg" width="602" height="602">
<path d="M0 0 C198.66 0 397.32 0 602 0 C602 198.66 602 397.32 602 602 C403.34 602 204.68 602 0 602 C0 403.34 0 204.68 0 0 Z " fill="#FEFEFE" transform="translate(0,0)"/>
<path d="M0 0 C4.62 0 9.24 0 14 0 C14 9.24 14 18.48 14 28 C18.62 28 23.24 28 28 28 C28 32.62 28 37.24 28 42 C29.98 42 31.96 42 34 42 C30.535 48.93 30.535 48.93 27 56 C18.09 56 9.18 56 0 56 C0 60.62 0 65.24 0 70 C4.62 70 9.24 70 14 70 C14 83.86 14 97.72 14 112 C9.38 112 4.76 112 0 112 C0 121.24 0 130.48 0 140 C8.25 140 16.5 140 25 140 C24.01 144.62 23.02 149.24 22 154 C19.36 154 16.72 154 14 154 C14 158.62 14 163.24 14 168 C15.65 168 17.3 168 19 168 C19.37125 168.928125 19.7425 169.85625 20.125 170.8125 C22.30942959 174.5260303 24.06718759 175.42687504 28 177 C28 178.65 28 180.3 28 182 C32.62 182 37.24 182 42 182 C42 186.62 42 191.24 42 196 C46.62 196 51.24 196 56 196 C56 205.24 56 214.48 56 224 C60.62 224 65.24 224 70 224 C70 219.38 70 214.76 70 210 C79.24 210 88.48 210 98 210 C98 219.24 98 228.48 98 238 C102.62 238 107.24 238 112 238 C112 242.62 112 247.24 112 252 C102.76 252 93.52 252 84 252 C84 256.62 84 261.24 84 266 C93.24 266 102.48 266 112 266 C112 270.62 112 275.24 112 280 C121.24 280 130.48 280 140 280 C140 284.62 140 289.24 140 294 C135.38 294 130.76 294 126 294 C126 298.62 126 303.24 126 308 C121.38 308 116.76 308 112 308 C112 312.62 112 317.24 112 322 C107.38 322 102.76 322 98 322 C98 331.24 98 340.48 98 350 C102.62 350 107.24 350 112 350 C112 345.38 112 340.76 112 336 C116.62 336 121.24 336 126 336 C126 349.86 126 363.72 126 378 C116.76 378 107.52 378 98 378 C98 373.38 98 368.76 98 364 C93.38 364 88.76 364 84 364 C84 359.38 84 354.76 84 350 C79.38 350 74.76 350 70 350 C70 345.38 70 340.76 70 336 C65.38 336 60.76 336 56 336 C56 331.38 56 326.76 56 322 C42.14 322 28.28 322 14 322 C14 312.76 14 303.52 14 294 C9.38 294 4.76 294 0 294 C0 298.62 0 303.24 0 308 C-4.62 308 -9.24 308 -14 308 C-14 303.38 -14 298.76 -14 294 C-18.62 294 -23.24 294 -28 294 C-28 298.62 -28 303.24 -28 308 C-32.62 308 -37.24 308 -42 308 C-42 312.62 -42 317.24 -42 322 C-51.24 322 -60.48 322 -70 322 C-70 317.38 -70 312.76 -70 308 C-65.38 308 -60.76 308 -56 308 C-56 303.38 -56 298.76 -56 294 C-60.62 294 -65.24 294 -70 294 C-70 284.76 -70 275.52 -70 266 C-60.76 266 -51.52 266 -42 266 C-42 256.76 -42 247.52 -42 238 C-46.62 238 -51.24 238 -56 238 C-56 242.62 -56 247.24 -56 252 C-60.62 252 -65.24 252 -70 252 C-70 247.38 -70 242.76 -70 238 C-79.24 238 -88.48 238 -98 238 C-98 233.38 -98 228.76 -98 224 C-88.76 224 -79.52 224 -70 224 C-70 219.38 -70 214.76 -70 210 C-83.86 210 -97.72 210 -112 210 C-112 205.38 -112 200.76 -112 196 C-98.14 196 -84.28 196 -70 196 C-70 191.38 -70 186.76 -70 182 C-83.86 182 -97.72 182 -112 182 C-112 177.38 -112 172.76 -112 168 C-116.62 168 -121.24 168 -126 168 C-126 154.14 -126 140.28 -126 126 C-130.62 126 -135.24 126 -140 126 C-140 130.62 -140 135.24 -140 140 C-144.62 140 -149.24 140 -154 140 C-154 135.38 -154 130.76 -154 126 C-158.62 126 -163.24 126 -168 126 C-168 130.62 -168 135.24 -168 140 C-172.62 140 -177.24 140 -182 140 C-182 130.76 -182 121.52 -182 112 C-172.76 112 -163.52 112 -154 112 C-154 107.38 -154 102.76 -154 98 C-149.38 98 -144.76 98 -140 98 C-140 93.38 -140 88.76 -140 84 C-135.38 84 -130.76 84 -126 84 C-126 88.62 -126 93.24 -126 98 C-116.76 98 -107.52 98 -98 98 C-98 102.62 -98 107.24 -98 112 C-93.38 112 -88.76 112 -84 112 C-84 116.62 -84 121.24 -84 126 C-74.76 126 -65.52 126 -56 126 C-56 121.38 -56 116.76 -56 112 C-60.62 112 -65.24 112 -70 112 C-70 107.38 -70 102.76 -70 98 C-65.38 98 -60.76 98 -56 98 C-56 88.76 -56 79.52 -56 70 C-46.76 70 -37.52 70 -28 70 C-28 65.38 -28 60.76 -28 56 C-23.38 56 -18.76 56 -14 56 C-14 42.14 -14 28.28 -14 14 C-9.38 14 -4.76 14 0 14 C0 9.38 0 4.76 0 0 Z " fill="#000000" transform="translate(196,210)"/>
<path d="M0 0 C6.27 0 12.54 0 19 0 C19.99 1.98 20.98 3.96 22 6 C25.05039221 7.90206849 25.05039221 7.90206849 28 9 C28 10.65 28 12.3 28 14 C32.62 14 37.24 14 42 14 C42 18.62 42 23.24 42 28 C46.62 28 51.24 28 56 28 C56 37.24 56 46.48 56 56 C60.62 56 65.24 56 70 56 C70 51.38 70 46.76 70 42 C79.24 42 88.48 42 98 42 C98 51.24 98 60.48 98 70 C102.62 70 107.24 70 112 70 C112 74.62 112 79.24 112 84 C102.76 84 93.52 84 84 84 C84 88.62 84 93.24 84 98 C93.24 98 102.48 98 112 98 C112 102.62 112 107.24 112 112 C121.24 112 130.48 112 140 112 C140 116.62 140 121.24 140 126 C135.38 126 130.76 126 126 126 C126 130.62 126 135.24 126 140 C121.38 140 116.76 140 112 140 C112 144.62 112 149.24 112 154 C107.38 154 102.76 154 98 154 C98 163.24 98 172.48 98 182 C102.62 182 107.24 182 112 182 C112 177.38 112 172.76 112 168 C116.62 168 121.24 168 126 168 C126 181.86 126 195.72 126 210 C116.76 210 107.52 210 98 210 C98 205.38 98 200.76 98 196 C93.38 196 88.76 196 84 196 C84 191.38 84 186.76 84 182 C79.38 182 74.76 182 70 182 C70 177.38 70 172.76 70 168 C65.38 168 60.76 168 56 168 C56 163.38 56 158.76 56 154 C42.14 154 28.28 154 14 154 C14 144.76 14 135.52 14 126 C9.38 126 4.76 126 0 126 C0 130.62 0 135.24 0 140 C-4.62 140 -9.24 140 -14 140 C-14 135.38 -14 130.76 -14 126 C-18.62 126 -23.24 126 -28 126 C-28 130.62 -28 135.24 -28 140 C-32.62 140 -37.24 140 -42 140 C-42 144.62 -42 149.24 -42 154 C-51.24 154 -60.48 154 -70 154 C-70 149.38 -70 144.76 -70 140 C-65.38 140 -60.76 140 -56 140 C-56 135.38 -56 130.76 -56 126 C-60.62 126 -65.24 126 -70 126 C-70 116.76 -70 107.52 -70 98 C-60.76 98 -51.52 98 -42 98 C-42 84.14 -42 70.28 -42 56 C-37.38 56 -32.76 56 -28 56 C-28 51.38 -28 46.76 -28 42 C-23.38 42 -18.76 42 -14 42 C-14 46.62 -14 51.24 -14 56 C-9.38 56 -4.76 56 0 56 C0 37.52 0 19.04 0 0 Z " fill="#FFFFFF" transform="translate(196,378)"/>
<path d="M0 0 C9.24 0 18.48 0 28 0 C28 4.62 28 9.24 28 14 C32.62 14 37.24 14 42 14 C42 23.24 42 32.48 42 42 C55.86 42 69.72 42 84 42 C84 55.86 84 69.72 84 84 C88.62 84 93.24 84 98 84 C98 79.38 98 74.76 98 70 C102.62 70 107.24 70 112 70 C112 74.62 112 79.24 112 84 C116.62 84 121.24 84 126 84 C126 79.38 126 74.76 126 70 C130.62 70 135.24 70 140 70 C140 97.72 140 125.44 140 154 C135.38 154 130.76 154 126 154 C126 158.62 126 163.24 126 168 C116.76 168 107.52 168 98 168 C98 163.38 98 158.76 98 154 C102.62 154 107.24 154 112 154 C112 144.76 112 135.52 112 126 C107.38 126 102.76 126 98 126 C98 130.62 98 135.24 98 140 C93.38 140 88.76 140 84 140 C84 130.76 84 121.52 84 112 C79.38 112 74.76 112 70 112 C70 116.62 70 121.24 70 126 C65.38 126 60.76 126 56 126 C56 121.38 56 116.76 56 112 C42.14 112 28.28 112 14 112 C14 116.62 14 121.24 14 126 C23.24 126 32.48 126 42 126 C42 139.86 42 153.72 42 168 C32.76 168 23.52 168 14 168 C14 163.38 14 158.76 14 154 C9.38 154 4.76 154 0 154 C0 149.38 0 144.76 0 140 C-4.62 140 -9.24 140 -14 140 C-14 149.24 -14 158.48 -14 168 C-18.62 168 -23.24 168 -28 168 C-28 163.38 -28 158.76 -28 154 C-32.62 154 -37.24 154 -42 154 C-42 149.38 -42 144.76 -42 140 C-46.62 140 -51.24 140 -56 140 C-56 144.62 -56 149.24 -56 154 C-60.62 154 -65.24 154 -70 154 C-70 144.76 -70 135.52 -70 126 C-79.24 126 -88.48 126 -98 126 C-98 121.38 -98 116.76 -98 112 C-102.62 112 -107.24 112 -112 112 C-112 107.38 -112 102.76 -112 98 C-107.38 98 -102.76 98 -98 98 C-98 93.38 -98 88.76 -98 84 C-93.38 84 -88.76 84 -84 84 C-84 79.38 -84 74.76 -84 70 C-70.14 70 -56.28 70 -42 70 C-42 74.62 -42 79.24 -42 84 C-37.38 84 -32.76 84 -28 84 C-28 79.38 -28 74.76 -28 70 C-23.38 70 -18.76 70 -14 70 C-14 65.38 -14 60.76 -14 56 C-9.38 56 -4.76 56 0 56 C0 51.38 0 46.76 0 42 C9.24 42 18.48 42 28 42 C28 37.38 28 32.76 28 28 C23.38 28 18.76 28 14 28 C14 23.38 14 18.76 14 14 C9.38 14 4.76 14 0 14 C0 9.38 0 4.76 0 0 Z " fill="#000000" transform="translate(448,420)"/>
<path d="M0 0 C0 2.31 0 4.62 0 7 C13.86 7 27.72 7 42 7 C42 11.62 42 16.24 42 21 C37.38 21 32.76 21 28 21 C28 25.62 28 30.24 28 35 C32.62 35 37.24 35 42 35 C42 39.62 42 44.24 42 49 C46.62 49 51.24 49 56 49 C56 58.24 56 67.48 56 77 C60.62 77 65.24 77 70 77 C70 72.38 70 67.76 70 63 C74.62 63 79.24 63 84 63 C84 53.76 84 44.52 84 35 C97.86 35 111.72 35 126 35 C126 39.62 126 44.24 126 49 C116.76 49 107.52 49 98 49 C98 53.62 98 58.24 98 63 C102.62 63 107.24 63 112 63 C112 67.62 112 72.24 112 77 C116.62 77 121.24 77 126 77 C126 81.62 126 86.24 126 91 C116.76 91 107.52 91 98 91 C98 95.62 98 100.24 98 105 C93.38 105 88.76 105 84 105 C84 109.62 84 114.24 84 119 C79.38 119 74.76 119 70 119 C70 123.62 70 128.24 70 133 C65.38 133 60.76 133 56 133 C56 128.38 56 123.76 56 119 C42.14 119 28.28 119 14 119 C14 123.62 14 128.24 14 133 C9.38 133 4.76 133 0 133 C0 137.62 0 142.24 0 147 C-4.62 147 -9.24 147 -14 147 C-14 151.62 -14 156.24 -14 161 C-18.62 161 -23.24 161 -28 161 C-28 165.62 -28 170.24 -28 175 C-32.62 175 -37.24 175 -42 175 C-42 179.62 -42 184.24 -42 189 C-46.62 189 -51.24 189 -56 189 C-56 179.76 -56 170.52 -56 161 C-51.38 161 -46.76 161 -42 161 C-42 156.38 -42 151.76 -42 147 C-37.38 147 -32.76 147 -28 147 C-28 142.38 -28 137.76 -28 133 C-23.38 133 -18.76 133 -14 133 C-14 128.38 -14 123.76 -14 119 C-23.24 119 -32.48 119 -42 119 C-42 114.38 -42 109.76 -42 105 C-51.24 105 -60.48 105 -70 105 C-70 100.38 -70 95.76 -70 91 C-60.76 91 -51.52 91 -42 91 C-42 86.38 -42 81.76 -42 77 C-46.62 77 -51.24 77 -56 77 C-56 63.14 -56 49.28 -56 35 C-60.62 35 -65.24 35 -70 35 C-70 30.38 -70 25.76 -70 21 C-65.38 21 -60.76 21 -56 21 C-56 19.02 -56 17.04 -56 15 C-54.9584375 14.96261719 -53.916875 14.92523438 -52.84375 14.88671875 C-35.05771242 14.12897536 -14.7424144 0 0 0 Z " fill="#FFFFFF" transform="translate(350,371)"/>
<path d="M0 0 C13.86 0 27.72 0 42 0 C42 9.24 42 18.48 42 28 C37.38 28 32.76 28 28 28 C28 32.62 28 37.24 28 42 C37.24 42 46.48 42 56 42 C56 46.62 56 51.24 56 56 C60.62 56 65.24 56 70 56 C70 60.62 70 65.24 70 70 C74.62 70 79.24 70 84 70 C84 79.24 84 88.48 84 98 C88.62 98 93.24 98 98 98 C98 102.62 98 107.24 98 112 C102.62 112 107.24 112 112 112 C112 116.62 112 121.24 112 126 C107.38 126 102.76 126 98 126 C98 130.62 98 135.24 98 140 C93.38 140 88.76 140 84 140 C84 149.24 84 158.48 84 168 C79.38 168 74.76 168 70 168 C70 154.14 70 140.28 70 126 C74.62 126 79.24 126 84 126 C84 121.38 84 116.76 84 112 C65.52 112 47.04 112 28 112 C28 121.24 28 130.48 28 140 C32.62 140 37.24 140 42 140 C42 144.62 42 149.24 42 154 C46.62 154 51.24 154 56 154 C56 163.24 56 172.48 56 182 C51.38 182 46.76 182 42 182 C42 177.38 42 172.76 42 168 C37.38 168 32.76 168 28 168 C28 163.38 28 158.76 28 154 C23.38 154 18.76 154 14 154 C14 144.76 14 135.52 14 126 C9.38 126 4.76 126 0 126 C0 116.76 0 107.52 0 98 C-4.62 98 -9.24 98 -14 98 C-14 93.38 -14 88.76 -14 84 C-18.62 84 -23.24 84 -28 84 C-28 88.62 -28 93.24 -28 98 C-32.62 98 -37.24 98 -42 98 C-42 84.14 -42 70.28 -42 56 C-46.62 56 -51.24 56 -56 56 C-56 60.62 -56 65.24 -56 70 C-60.62 70 -65.24 70 -70 70 C-70 74.62 -70 79.24 -70 84 C-65.38 84 -60.76 84 -56 84 C-56 93.24 -56 102.48 -56 112 C-60.62 112 -65.24 112 -70 112 C-70 116.62 -70 121.24 -70 126 C-88.48 126 -106.96 126 -126 126 C-126 121.38 -126 116.76 -126 112 C-116.76 112 -107.52 112 -98 112 C-98 88.9 -98 65.8 -98 42 C-93.38 42 -88.76 42 -84 42 C-84 37.38 -84 32.76 -84 28 C-79.38 28 -74.76 28 -70 28 C-70 32.62 -70 37.24 -70 42 C-65.38 42 -60.76 42 -56 42 C-56 37.38 -56 32.76 -56 28 C-46.76 28 -37.52 28 -28 28 C-28 32.62 -28 37.24 -28 42 C-23.38 42 -18.76 42 -14 42 C-14 32.76 -14 23.52 -14 14 C-9.38 14 -4.76 14 0 14 C0 9.38 0 4.76 0 0 Z " fill="#000000" transform="translate(224,14)"/>
<path d="M0 0 C23.1 0 46.2 0 70 0 C70 9.24 70 18.48 70 28 C65.38 28 60.76 28 56 28 C56 32.62 56 37.24 56 42 C60.62 42 65.24 42 70 42 C70 46.62 70 51.24 70 56 C60.76 56 51.52 56 42 56 C42 60.62 42 65.24 42 70 C37.38 70 32.76 70 28 70 C28 65.38 28 60.76 28 56 C23.38 56 18.76 56 14 56 C14 51.38 14 46.76 14 42 C9.38 42 4.76 42 0 42 C0 51.24 0 60.48 0 70 C4.62 70 9.24 70 14 70 C14 74.62 14 79.24 14 84 C23.24 84 32.48 84 42 84 C42 97.86 42 111.72 42 126 C55.86 126 69.72 126 84 126 C84 116.76 84 107.52 84 98 C88.62 98 93.24 98 98 98 C98 102.62 98 107.24 98 112 C102.62 112 107.24 112 112 112 C112 116.62 112 121.24 112 126 C107.38 126 102.76 126 98 126 C98 130.62 98 135.24 98 140 C88.76 140 79.52 140 70 140 C70 144.62 70 149.24 70 154 C65.38 154 60.76 154 56 154 C56 149.38 56 144.76 56 140 C51.38 140 46.76 140 42 140 C42 149.24 42 158.48 42 168 C32.76 168 23.52 168 14 168 C14 172.62 14 177.24 14 182 C9.38 182 4.76 182 0 182 C0 172.76 0 163.52 0 154 C-4.62 154 -9.24 154 -14 154 C-14 149.38 -14 144.76 -14 140 C-18.62 140 -23.24 140 -28 140 C-28 144.62 -28 149.24 -28 154 C-32.62 154 -37.24 154 -42 154 C-42 149.38 -42 144.76 -42 140 C-46.62 140 -51.24 140 -56 140 C-56 144.62 -56 149.24 -56 154 C-60.62 154 -65.24 154 -70 154 C-70 144.76 -70 135.52 -70 126 C-60.76 126 -51.52 126 -42 126 C-42 121.38 -42 116.76 -42 112 C-55.86 112 -69.72 112 -84 112 C-84 107.38 -84 102.76 -84 98 C-88.62 98 -93.24 98 -98 98 C-98 107.24 -98 116.48 -98 126 C-93.38 126 -88.76 126 -84 126 C-84 130.62 -84 135.24 -84 140 C-87.96 140 -91.92 140 -96 140 C-96.4846875 139.10539063 -96.969375 138.21078125 -97.46875 137.2890625 C-101.30585602 130.3309301 -105.2254293 124.06518929 -110.53125 118.0859375 C-112 116 -112 116 -112 112 C-112.72574219 111.90074219 -113.45148438 111.80148438 -114.19921875 111.69921875 C-117.35801997 110.91061984 -119.21783357 109.76172702 -121.8125 107.8125 C-122.60269531 107.24144531 -123.39289063 106.67039062 -124.20703125 106.08203125 C-126 104 -126 104 -126 98 C-121.38 98 -116.76 98 -112 98 C-112 93.38 -112 88.76 -112 84 C-98.14 84 -84.28 84 -70 84 C-70 88.62 -70 93.24 -70 98 C-65.38 98 -60.76 98 -56 98 C-56 93.38 -56 88.76 -56 84 C-51.38 84 -46.76 84 -42 84 C-42 88.62 -42 93.24 -42 98 C-37.38 98 -32.76 98 -28 98 C-28 88.76 -28 79.52 -28 70 C-41.86 70 -55.72 70 -70 70 C-70 65.38 -70 60.76 -70 56 C-65.38 56 -60.76 56 -56 56 C-56 46.76 -56 37.52 -56 28 C-51.38 28 -46.76 28 -42 28 C-42 32.62 -42 37.24 -42 42 C-32.76 42 -23.52 42 -14 42 C-14 37.38 -14 32.76 -14 28 C-0.14 28 13.72 28 28 28 C28 23.38 28 18.76 28 14 C18.76 14 9.52 14 0 14 C0 9.38 0 4.76 0 0 Z " fill="#000000" transform="translate(476,126)"/>
<path d="M0 0 C2.31 0 4.62 0 7 0 C7 4.62 7 9.24 7 14 C11.62 14 16.24 14 21 14 C21 18.62 21 23.24 21 28 C25.62 28 30.24 28 35 28 C35 32.62 35 37.24 35 42 C39.62 42 44.24 42 49 42 C49 46.62 49 51.24 49 56 C62.86 56 76.72 56 91 56 C91 65.24 91 74.48 91 84 C95.62 84 100.24 84 105 84 C105 88.62 105 93.24 105 98 C100.38 98 95.76 98 91 98 C91 102.62 91 107.24 91 112 C95.62 112 100.24 112 105 112 C105 116.62 105 121.24 105 126 C109.62 126 114.24 126 119 126 C119 121.38 119 116.76 119 112 C123.62 112 128.24 112 133 112 C133 116.62 133 121.24 133 126 C137.62 126 142.24 126 147 126 C147 130.62 147 135.24 147 140 C156.24 140 165.48 140 175 140 C175 130.76 175 121.52 175 112 C179.62 112 184.24 112 189 112 C189 116.62 189 121.24 189 126 C193.62 126 198.24 126 203 126 C203 130.62 203 135.24 203 140 C198.38 140 193.76 140 189 140 C189 144.62 189 149.24 189 154 C193.62 154 198.24 154 203 154 C203 163.24 203 172.48 203 182 C198.38 182 193.76 182 189 182 C189 177.38 189 172.76 189 168 C179.76 168 170.52 168 161 168 C161 163.38 161 158.76 161 154 C151.76 154 142.52 154 133 154 C133 158.62 133 163.24 133 168 C128.38 168 123.76 168 119 168 C119 158.76 119 149.52 119 140 C109.76 140 100.52 140 91 140 C91 135.38 91 130.76 91 126 C77.14 126 63.28 126 49 126 C49 135.24 49 144.48 49 154 C44.38 154 39.76 154 35 154 C35 158.62 35 163.24 35 168 C30.38 168 25.76 168 21 168 C21 158.76 21 149.52 21 140 C16.38 140 11.76 140 7 140 C7 135.38 7 130.76 7 126 C2.38 126 -2.24 126 -7 126 C-7 121.38 -7 116.76 -7 112 C-2.38 112 2.24 112 7 112 C7 107.38 7 102.76 7 98 C-2.24 98 -11.48 98 -21 98 C-21 93.38 -21 88.76 -21 84 C-2.52 84 15.96 84 35 84 C35 79.38 35 74.76 35 70 C30.38 70 25.76 70 21 70 C21 65.38 21 60.76 21 56 C16.38 56 11.76 56 7 56 C7 60.62 7 65.24 7 70 C2.38 70 -2.24 70 -7 70 C-7.49440251 61.69403788 -6.74492619 56.12599739 -3.19140625 48.59375 C-2.16980375 46.36967112 -1.48966299 44.38640355 -1 42 C1.64 42 4.28 42 7 42 C7 37.38 7 32.76 7 28 C5.35 28 3.7 28 2 28 C1.97494385 27.36497559 1.9498877 26.72995117 1.92407227 26.07568359 C1.80743211 23.17528458 1.68501607 20.27515651 1.5625 17.375 C1.52318359 16.37597656 1.48386719 15.37695312 1.44335938 14.34765625 C1.23427386 9.49043896 0.97041445 4.77867956 0 0 Z " fill="#000000" transform="translate(385,280)"/>
<path d="M0 0 C12.93725339 10.86520339 22.21105481 25.37274227 24.28222656 42.30761719 C25.24279053 54.03228994 23.33655138 64.14050227 19 75 C18.65066406 75.92167969 18.30132812 76.84335937 17.94140625 77.79296875 C12.08893417 91.27723592 -1.06480964 102.23246522 -14.3125 107.875 C-16.19790465 108.6106422 -18.09388808 109.31981069 -20 110 C-20.86109375 110.36480469 -21.7221875 110.72960937 -22.609375 111.10546875 C-36.44089836 114.75456881 -53.14612932 113.16638391 -66 107 C-66.80953125 106.44957031 -67.6190625 105.89914062 -68.453125 105.33203125 C-74.11012702 102.37338449 -79.94266837 104.27758501 -85.75 106 C-92.65540541 108 -92.65540541 108 -96 108 C-94.29295871 96.94055165 -94.29295871 96.94055165 -92.8125 92.1875 C-91.3415805 86.41696965 -92.69542766 82.37437852 -95.375 77.25 C-102.51400229 63.3444651 -103.31789574 46.57333554 -99.5 31.4375 C-93.67166704 14.28085789 -81.82599162 1.64387193 -66.0625 -6.75 C-44.66703295 -16.70825886 -19.03135509 -13.97573781 0 0 Z " fill="#FDFDFD" transform="translate(340,251)"/>
<path d="M0 0 C32.34 0 64.68 0 98 0 C98 32.34 98 64.68 98 98 C65.66 98 33.32 98 0 98 C0 65.66 0 33.32 0 0 Z " fill="#FFFFFF" transform="translate(14,490)"/>
<path d="M0 0 C32.34 0 64.68 0 98 0 C98 32.34 98 64.68 98 98 C65.66 98 33.32 98 0 98 C0 65.66 0 33.32 0 0 Z " fill="#FFFFFF" transform="translate(490,14)"/>
<path d="M0 0 C32.34 0 64.68 0 98 0 C98 32.34 98 64.68 98 98 C65.66 98 33.32 98 0 98 C0 65.66 0 33.32 0 0 Z " fill="#FFFFFF" transform="translate(14,14)"/>
<path d="M0 0 C13.86 0 27.72 0 42 0 C42 9.24 42 18.48 42 28 C37.38 28 32.76 28 28 28 C28 32.62 28 37.24 28 42 C37.24 42 46.48 42 56 42 C56 46.62 56 51.24 56 56 C60.62 56 65.24 56 70 56 C70 60.62 70 65.24 70 70 C74.62 70 79.24 70 84 70 C84 79.24 84 88.48 84 98 C88.62 98 93.24 98 98 98 C98 102.62 98 107.24 98 112 C102.62 112 107.24 112 112 112 C112 116.62 112 121.24 112 126 C107.38 126 102.76 126 98 126 C98 130.62 98 135.24 98 140 C93.38 140 88.76 140 84 140 C84 149.24 84 158.48 84 168 C79.38 168 74.76 168 70 168 C70 154.14 70 140.28 70 126 C74.62 126 79.24 126 84 126 C84 121.38 84 116.76 84 112 C60.9 112 37.8 112 14 112 C14 98.14 14 84.28 14 70 C9.38 70 4.76 70 0 70 C0 60.76 0 51.52 0 42 C-4.62 42 -9.24 42 -14 42 C-14 32.76 -14 23.52 -14 14 C-9.38 14 -4.76 14 0 14 C0 9.38 0 4.76 0 0 Z " fill="#000000" transform="translate(224,14)"/>
<path d="M0 0 C4.62 0 9.24 0 14 0 C14 9.24 14 18.48 14 28 C18.62 28 23.24 28 28 28 C28 32.62 28 37.24 28 42 C29.98 42 31.96 42 34 42 C30.535 48.93 30.535 48.93 27 56 C18.09 56 9.18 56 0 56 C0 60.62 0 65.24 0 70 C4.62 70 9.24 70 14 70 C14 83.86 14 97.72 14 112 C9.38 112 4.76 112 0 112 C0 121.24 0 130.48 0 140 C8.25 140 16.5 140 25 140 C24.01 144.62 23.02 149.24 22 154 C19.36 154 16.72 154 14 154 C14 158.62 14 163.24 14 168 C9.38 168 4.76 168 0 168 C0 163.38 0 158.76 0 154 C-13.86 154 -27.72 154 -42 154 C-42 144.76 -42 135.52 -42 126 C-46.62 126 -51.24 126 -56 126 C-56 121.38 -56 116.76 -56 112 C-60.62 112 -65.24 112 -70 112 C-70 107.38 -70 102.76 -70 98 C-65.38 98 -60.76 98 -56 98 C-56 88.76 -56 79.52 -56 70 C-46.76 70 -37.52 70 -28 70 C-28 65.38 -28 60.76 -28 56 C-23.38 56 -18.76 56 -14 56 C-14 42.14 -14 28.28 -14 14 C-9.38 14 -4.76 14 0 14 C0 9.38 0 4.76 0 0 Z " fill="#000000" transform="translate(196,210)"/>
<path d="M0 0 C4.62 0 9.24 0 14 0 C14 4.62 14 9.24 14 14 C23.24 14 32.48 14 42 14 C42 27.86 42 41.72 42 56 C55.86 56 69.72 56 84 56 C84 46.76 84 37.52 84 28 C88.62 28 93.24 28 98 28 C98 32.62 98 37.24 98 42 C102.62 42 107.24 42 112 42 C112 46.62 112 51.24 112 56 C107.38 56 102.76 56 98 56 C98 60.62 98 65.24 98 70 C88.76 70 79.52 70 70 70 C70 74.62 70 79.24 70 84 C65.38 84 60.76 84 56 84 C56 79.38 56 74.76 56 70 C51.38 70 46.76 70 42 70 C42 79.24 42 88.48 42 98 C32.76 98 23.52 98 14 98 C14 102.62 14 107.24 14 112 C9.38 112 4.76 112 0 112 C0 102.76 0 93.52 0 84 C-4.62 84 -9.24 84 -14 84 C-14 79.38 -14 74.76 -14 70 C-18.62 70 -23.24 70 -28 70 C-28 74.62 -28 79.24 -28 84 C-32.62 84 -37.24 84 -42 84 C-42 79.38 -42 74.76 -42 70 C-46.62 70 -51.24 70 -56 70 C-56 74.62 -56 79.24 -56 84 C-60.62 84 -65.24 84 -70 84 C-70 74.76 -70 65.52 -70 56 C-56.14 56 -42.28 56 -28 56 C-28 51.38 -28 46.76 -28 42 C-18.76 42 -9.52 42 0 42 C0 28.14 0 14.28 0 0 Z " fill="#000000" transform="translate(476,196)"/>
<path d="M0 0 C4.62 0 9.24 0 14 0 C14 13.86 14 27.72 14 42 C18.62 42 23.24 42 28 42 C28 37.38 28 32.76 28 28 C32.62 28 37.24 28 42 28 C42 32.62 42 37.24 42 42 C46.62 42 51.24 42 56 42 C56 51.24 56 60.48 56 70 C60.62 70 65.24 70 70 70 C70 79.24 70 88.48 70 98 C74.62 98 79.24 98 84 98 C84 102.62 84 107.24 84 112 C88.62 112 93.24 112 98 112 C98 121.24 98 130.48 98 140 C93.38 140 88.76 140 84 140 C84 144.62 84 149.24 84 154 C79.38 154 74.76 154 70 154 C70 140.14 70 126.28 70 112 C56.14 112 42.28 112 28 112 C28 116.62 28 121.24 28 126 C23.38 126 18.76 126 14 126 C14 135.24 14 144.48 14 154 C9.38 154 4.76 154 0 154 C0 112.42 0 70.84 0 28 C-4.62 28 -9.24 28 -14 28 C-14 23.38 -14 18.76 -14 14 C-9.38 14 -4.76 14 0 14 C0 9.38 0 4.76 0 0 Z " fill="#FFFFFF" transform="translate(168,70)"/>
<path d="M0 0 C1.37631558 1.16175688 2.73073997 2.34992472 4.0625 3.5625 C4.80757812 4.22765625 5.55265625 4.8928125 6.3203125 5.578125 C16.89210922 15.54069954 22.72195826 26.94119466 27.0625 40.5625 C27.4646875 41.81933594 27.4646875 41.81933594 27.875 43.1015625 C32.94835444 63.04266398 28.04616196 84.25483646 18.15283203 101.75878906 C16.28426613 104.8499142 14.28669575 107.71171862 12.0625 110.5625 C11.4025 110.5625 10.7425 110.5625 10.0625 110.5625 C9.70671875 111.41714844 9.70671875 111.41714844 9.34375 112.2890625 C2.12140156 125.10432711 -14.98682314 131.65634438 -28.28125 135.5390625 C-37.57961723 137.82100125 -46.44313521 137.93064884 -55.9375 137.5625 C-56.76765625 137.55476562 -57.5978125 137.54703125 -58.453125 137.5390625 C-65.11306369 137.20860753 -71.23544292 134.3683657 -77.36328125 131.9375 C-82.28314185 130.04483232 -84.79957771 129.26315151 -89.9375 130.671875 C-91.38406982 131.06028564 -91.38406982 131.06028564 -92.85986328 131.45654297 C-94.38329346 131.8802417 -94.38329346 131.8802417 -95.9375 132.3125 C-98.01817565 132.87259469 -100.09890431 133.43249248 -102.1796875 133.9921875 C-103.17581055 134.26385742 -104.17193359 134.53552734 -105.19824219 134.81542969 C-108.48127939 135.71080347 -111.76756117 136.58692682 -115.0625 137.4375 C-116.33480469 137.77394531 -116.33480469 137.77394531 -117.6328125 138.1171875 C-120.11734969 138.59725062 -122.41306389 138.64335383 -124.9375 138.5625 C-124.56697694 132.93054951 -123.5511704 127.86563269 -121.984375 122.4375 C-121.80080444 121.80110596 -121.61723389 121.16471191 -121.42810059 120.5090332 C-120.65909443 117.8558877 -119.8847826 115.20523918 -119.07421875 112.56445312 C-116.61677038 104.50243702 -114.90697654 98.36215315 -118.9375 90.5625 C-119.49824219 89.13164062 -119.49824219 89.13164062 -120.0703125 87.671875 C-120.73627581 86.0882457 -121.40295206 84.50491604 -122.0703125 82.921875 C-124.44077973 76.47249569 -124.19229039 69.87172763 -124.23266602 63.08203125 C-124.24971145 61.09611756 -124.2935716 59.11049227 -124.33789062 57.125 C-124.46453973 37.64052251 -116.01146986 19.88898494 -102.48535156 6.03955078 C-74.47352417 -20.69097852 -30.95991183 -23.15262971 0 0 Z M-71.9375 3.5625 C-73.23300781 4.0884375 -73.23300781 4.0884375 -74.5546875 4.625 C-89.90892087 11.51288039 -100.49287679 24.32427878 -106.9375 39.5625 C-107.27910156 40.36558594 -107.62070313 41.16867187 -107.97265625 41.99609375 C-113.04266758 56.73449878 -111.05735722 74.50293329 -104.9375 88.5625 C-104.22375688 89.78414593 -103.49834638 90.99904626 -102.76171875 92.20703125 C-100.96244719 95.51661213 -100.45853274 96.70271825 -101 100.3125 C-101.12375 101.15425781 -101.2475 101.99601562 -101.375 102.86328125 C-102.17514592 106.70287035 -103.18714212 110.45963529 -104.31640625 114.21484375 C-105.06537996 116.64113269 -105.06537996 116.64113269 -104.9375 119.5625 C-97.17681265 118.45118453 -97.17681265 118.45118453 -89.625 116.4375 C-85.32524211 115.03757883 -81.84746646 114.72507794 -77.62109375 116.578125 C-76.01564896 117.41225281 -74.42513334 118.2761284 -72.85546875 119.17578125 C-59.63034804 125.46081184 -41.96265242 126.36275514 -28.03613281 121.76635742 C-12.18970314 115.61322249 1.3853281 104.95591338 9.0625 89.5625 C16.41473811 71.38207777 17.71289201 53.7979582 10.0625 35.5625 C6.39759118 27.79840125 1.04193035 21.65855044 -4.9375 15.5625 C-5.47890625 14.99660156 -6.0203125 14.43070313 -6.578125 13.84765625 C-18.54502953 2.45492138 -34.82494172 -0.93361987 -50.73339844 -0.86181641 C-58.4318368 -0.66653767 -64.81989657 0.48023299 -71.9375 3.5625 Z " fill="#030303" transform="translate(348.9375,239.4375)"/>
<path d="M0 0 C4.62 0 9.24 0 14 0 C14 4.62 14 9.24 14 14 C18.62 14 23.24 14 28 14 C28 18.62 28 23.24 28 28 C32.62 28 37.24 28 42 28 C42 32.62 42 37.24 42 42 C46.62 42 51.24 42 56 42 C56 46.62 56 51.24 56 56 C65.24 56 74.48 56 84 56 C84 65.24 84 74.48 84 84 C74.76 84 65.52 84 56 84 C56 88.62 56 93.24 56 98 C51.38 98 46.76 98 42 98 C42 107.24 42 116.48 42 126 C37.38 126 32.76 126 28 126 C28 121.38 28 116.76 28 112 C23.38 112 18.76 112 14 112 C14 107.38 14 102.76 14 98 C18.62 98 23.24 98 28 98 C28 93.38 28 88.76 28 84 C23.38 84 18.76 84 14 84 C14 79.38 14 74.76 14 70 C4.76 70 -4.48 70 -14 70 C-14 60.76 -14 51.52 -14 42 C-9.38 42 -4.76 42 0 42 C0 28.14 0 14.28 0 0 Z " fill="#000000" transform="translate(84,168)"/>
<path d="M0 0 C9.24 0 18.48 0 28 0 C28 4.62 28 9.24 28 14 C23.38 14 18.76 14 14 14 C14 23.24 14 32.48 14 42 C23.24 42 32.48 42 42 42 C42 37.38 42 32.76 42 28 C46.62 28 51.24 28 56 28 C56 32.62 56 37.24 56 42 C69.86 42 83.72 42 98 42 C98 55.86 98 69.72 98 84 C84.14 84 70.28 84 56 84 C56 74.76 56 65.52 56 56 C51.38 56 46.76 56 42 56 C42 60.62 42 65.24 42 70 C37.38 70 32.76 70 28 70 C28 65.38 28 60.76 28 56 C23.38 56 18.76 56 14 56 C14 60.62 14 65.24 14 70 C9.38 70 4.76 70 0 70 C0 74.62 0 79.24 0 84 C-9.24 84 -18.48 84 -28 84 C-28 79.38 -28 74.76 -28 70 C-23.38 70 -18.76 70 -14 70 C-14 65.38 -14 60.76 -14 56 C-18.62 56 -23.24 56 -28 56 C-28 46.76 -28 37.52 -28 28 C-18.76 28 -9.52 28 0 28 C0 18.76 0 9.52 0 0 Z " fill="#000000" transform="translate(154,448)"/>
<path d="M0 0 C18.48 0 36.96 0 56 0 C56 4.62 56 9.24 56 14 C42.14 14 28.28 14 14 14 C14 18.62 14 23.24 14 28 C18.62 28 23.24 28 28 28 C28 37.24 28 46.48 28 56 C32.62 56 37.24 56 42 56 C42 74.48 42 92.96 42 112 C46.62 112 51.24 112 56 112 C56 116.62 56 121.24 56 126 C46.76 126 37.52 126 28 126 C28 130.62 28 135.24 28 140 C18.76 140 9.52 140 0 140 C0 135.38 0 130.76 0 126 C4.62 126 9.24 126 14 126 C14 121.38 14 116.76 14 112 C9.38 112 4.76 112 0 112 C0 93.52 0 75.04 0 56 C4.62 56 9.24 56 14 56 C14 51.38 14 46.76 14 42 C9.38 42 4.76 42 0 42 C0 28.14 0 14.28 0 0 Z " fill="#000000" transform="translate(14,154)"/>
<path d="M0 0 C32.34 0 64.68 0 98 0 C98 32.34 98 64.68 98 98 C65.66 98 33.32 98 0 98 C0 65.66 0 33.32 0 0 Z M14 14 C14 37.1 14 60.2 14 84 C37.1 84 60.2 84 84 84 C84 60.9 84 37.8 84 14 C60.9 14 37.8 14 14 14 Z " fill="#000000" transform="translate(14,490)"/>
<path d="M0 0 C32.34 0 64.68 0 98 0 C98 32.34 98 64.68 98 98 C65.66 98 33.32 98 0 98 C0 65.66 0 33.32 0 0 Z M14 14 C14 37.1 14 60.2 14 84 C37.1 84 60.2 84 84 84 C84 60.9 84 37.8 84 14 C60.9 14 37.8 14 14 14 Z " fill="#000000" transform="translate(490,14)"/>
<path d="M0 0 C32.34 0 64.68 0 98 0 C98 32.34 98 64.68 98 98 C65.66 98 33.32 98 0 98 C0 65.66 0 33.32 0 0 Z M14 14 C14 37.1 14 60.2 14 84 C37.1 84 60.2 84 84 84 C84 60.9 84 37.8 84 14 C60.9 14 37.8 14 14 14 Z " fill="#000000" transform="translate(14,14)"/>
<path d="M0 0 C9.24 0 18.48 0 28 0 C28 4.62 28 9.24 28 14 C32.62 14 37.24 14 42 14 C42 41.72 42 69.44 42 98 C37.38 98 32.76 98 28 98 C28 93.38 28 88.76 28 84 C23.38 84 18.76 84 14 84 C14 79.38 14 74.76 14 70 C18.62 70 23.24 70 28 70 C28 65.38 28 60.76 28 56 C23.38 56 18.76 56 14 56 C14 51.38 14 46.76 14 42 C9.38 42 4.76 42 0 42 C0 46.62 0 51.24 0 56 C-4.62 56 -9.24 56 -14 56 C-14 51.38 -14 46.76 -14 42 C-18.62 42 -23.24 42 -28 42 C-28 51.24 -28 60.48 -28 70 C-37.24 70 -46.48 70 -56 70 C-56 60.76 -56 51.52 -56 42 C-51.38 42 -46.76 42 -42 42 C-42 37.38 -42 32.76 -42 28 C-37.38 28 -32.76 28 -28 28 C-28 23.38 -28 18.76 -28 14 C-23.38 14 -18.76 14 -14 14 C-14 18.62 -14 23.24 -14 28 C-9.38 28 -4.76 28 0 28 C0 18.76 0 9.52 0 0 Z " fill="#000000" transform="translate(434,14)"/>
<path d="M0 0 C4.62 0 9.24 0 14 0 C14 4.62 14 9.24 14 14 C23.24 14 32.48 14 42 14 C42 18.62 42 23.24 42 28 C46.62 28 51.24 28 56 28 C56 32.62 56 37.24 56 42 C46.76 42 37.52 42 28 42 C28 46.62 28 51.24 28 56 C37.24 56 46.48 56 56 56 C56 60.62 56 65.24 56 70 C46.76 70 37.52 70 28 70 C28 74.62 28 79.24 28 84 C23.38 84 18.76 84 14 84 C14 70.14 14 56.28 14 42 C9.38 42 4.76 42 0 42 C0 46.62 0 51.24 0 56 C-4.62 56 -9.24 56 -14 56 C-14 51.38 -14 46.76 -14 42 C-18.62 42 -23.24 42 -28 42 C-28 46.62 -28 51.24 -28 56 C-32.62 56 -37.24 56 -42 56 C-42 46.76 -42 37.52 -42 28 C-32.76 28 -23.52 28 -14 28 C-14 23.38 -14 18.76 -14 14 C-9.38 14 -4.76 14 0 14 C0 9.38 0 4.76 0 0 Z " fill="#000000" transform="translate(56,294)"/>
<path d="M0 0 C4.62 0 9.24 0 14 0 C14 4.62 14 9.24 14 14 C18.62 14 23.24 14 28 14 C28 9.38 28 4.76 28 0 C32.62 0 37.24 0 42 0 C42 4.62 42 9.24 42 14 C46.62 14 51.24 14 56 14 C56 18.62 56 23.24 56 28 C51.38 28 46.76 28 42 28 C42 41.86 42 55.72 42 70 C46.62 70 51.24 70 56 70 C56 74.62 56 79.24 56 84 C51.38 84 46.76 84 42 84 C42 88.62 42 93.24 42 98 C37.38 98 32.76 98 28 98 C28 93.38 28 88.76 28 84 C23.38 84 18.76 84 14 84 C14 79.38 14 74.76 14 70 C9.38 70 4.76 70 0 70 C0 46.9 0 23.8 0 0 Z " fill="#000000" transform="translate(406,56)"/>
<path d="M0 0 C4.62 0 9.24 0 14 0 C14 4.62 14 9.24 14 14 C18.62 14 23.24 14 28 14 C28 18.62 28 23.24 28 28 C32.62 28 37.24 28 42 28 C42 23.38 42 18.76 42 14 C46.62 14 51.24 14 56 14 C56 32.48 56 50.96 56 70 C51.38 70 46.76 70 42 70 C42 65.38 42 60.76 42 56 C37.38 56 32.76 56 28 56 C28 60.62 28 65.24 28 70 C23.38 70 18.76 70 14 70 C14 65.38 14 60.76 14 56 C9.38 56 4.76 56 0 56 C0 51.38 0 46.76 0 42 C-4.62 42 -9.24 42 -14 42 C-14 37.38 -14 32.76 -14 28 C-18.62 28 -23.24 28 -28 28 C-28 23.38 -28 18.76 -28 14 C-18.76 14 -9.52 14 0 14 C0 9.38 0 4.76 0 0 Z " fill="#000000" transform="translate(504,308)"/>
<path d="M0 0 C4.62 0 9.24 0 14 0 C14 9.24 14 18.48 14 28 C18.62 28 23.24 28 28 28 C28 32.62 28 37.24 28 42 C18.76 42 9.52 42 0 42 C0 46.62 0 51.24 0 56 C-4.62 56 -9.24 56 -14 56 C-14 51.38 -14 46.76 -14 42 C-27.86 42 -41.72 42 -56 42 C-56 37.38 -56 32.76 -56 28 C-60.62 28 -65.24 28 -70 28 C-70 37.24 -70 46.48 -70 56 C-65.38 56 -60.76 56 -56 56 C-56 60.62 -56 65.24 -56 70 C-59.96 70 -63.92 70 -68 70 C-68.4846875 69.10539062 -68.969375 68.21078125 -69.46875 67.2890625 C-73.30585602 60.3309301 -77.2254293 54.06518929 -82.53125 48.0859375 C-84 46 -84 46 -84 42 C-84.72574219 41.90074219 -85.45148438 41.80148438 -86.19921875 41.69921875 C-89.35801997 40.91061984 -91.21783357 39.76172702 -93.8125 37.8125 C-94.60269531 37.24144531 -95.39289063 36.67039063 -96.20703125 36.08203125 C-98 34 -98 34 -98 28 C-93.38 28 -88.76 28 -84 28 C-84 23.38 -84 18.76 -84 14 C-70.14 14 -56.28 14 -42 14 C-42 18.62 -42 23.24 -42 28 C-37.38 28 -32.76 28 -28 28 C-28 23.38 -28 18.76 -28 14 C-23.38 14 -18.76 14 -14 14 C-14 18.62 -14 23.24 -14 28 C-9.38 28 -4.76 28 0 28 C0 18.76 0 9.52 0 0 Z " fill="#000000" transform="translate(448,196)"/>
<path d="M0 0 C4.62 0 9.24 0 14 0 C14 13.86 14 27.72 14 42 C9.38 42 4.76 42 0 42 C0 46.62 0 51.24 0 56 C-9.24 56 -18.48 56 -28 56 C-28 65.24 -28 74.48 -28 84 C-32.62 84 -37.24 84 -42 84 C-42 88.62 -42 93.24 -42 98 C-37.38 98 -32.76 98 -28 98 C-28 102.62 -28 107.24 -28 112 C-37.24 112 -46.48 112 -56 112 C-56 107.38 -56 102.76 -56 98 C-60.62 98 -65.24 98 -70 98 C-70 93.38 -70 88.76 -70 84 C-65.38 84 -60.76 84 -56 84 C-56 79.38 -56 74.76 -56 70 C-51.38 70 -46.76 70 -42 70 C-42 60.76 -42 51.52 -42 42 C-37.38 42 -32.76 42 -28 42 C-28 37.38 -28 32.76 -28 28 C-18.76 28 -9.52 28 0 28 C0 18.76 0 9.52 0 0 Z " fill="#FFFFFF" transform="translate(168,224)"/>
<path d="M0 0 C9.24 0 18.48 0 28 0 C28 4.62 28 9.24 28 14 C23.38 14 18.76 14 14 14 C14 23.24 14 32.48 14 42 C18.62 42 23.24 42 28 42 C28 37.38 28 32.76 28 28 C32.62 28 37.24 28 42 28 C42 41.86 42 55.72 42 70 C32.76 70 23.52 70 14 70 C14 65.38 14 60.76 14 56 C9.38 56 4.76 56 0 56 C0 51.38 0 46.76 0 42 C-4.62 42 -9.24 42 -14 42 C-14 37.38 -14 32.76 -14 28 C-18.62 28 -23.24 28 -28 28 C-28 23.38 -28 18.76 -28 14 C-18.76 14 -9.52 14 0 14 C0 9.38 0 4.76 0 0 Z " fill="#000000" transform="translate(280,518)"/>
<path d="M0 0 C4.62 0 9.24 0 14 0 C14 4.62 14 9.24 14 14 C23.24 14 32.48 14 42 14 C42 23.24 42 32.48 42 42 C32.76 42 23.52 42 14 42 C14 46.62 14 51.24 14 56 C9.38 56 4.76 56 0 56 C0 65.24 0 74.48 0 84 C-4.62 84 -9.24 84 -14 84 C-14 79.38 -14 74.76 -14 70 C-18.62 70 -23.24 70 -28 70 C-28 65.38 -28 60.76 -28 56 C-23.38 56 -18.76 56 -14 56 C-14 51.38 -14 46.76 -14 42 C-9.38 42 -4.76 42 0 42 C0 37.38 0 32.76 0 28 C-4.62 28 -9.24 28 -14 28 C-14 23.38 -14 18.76 -14 14 C-9.38 14 -4.76 14 0 14 C0 9.38 0 4.76 0 0 Z " fill="#000000" transform="translate(126,210)"/>
<path d="M0 0 C4.62 0 9.24 0 14 0 C14 4.62 14 9.24 14 14 C23.24 14 32.48 14 42 14 C42 27.86 42 41.72 42 56 C51.24 56 60.48 56 70 56 C70 60.62 70 65.24 70 70 C56.14 70 42.28 70 28 70 C28 65.38 28 60.76 28 56 C23.38 56 18.76 56 14 56 C14 51.38 14 46.76 14 42 C9.38 42 4.76 42 0 42 C0 28.14 0 14.28 0 0 Z " fill="#000000" transform="translate(14,364)"/>
<path d="M0 0 C4.62 0 9.24 0 14 0 C14 9.24 14 18.48 14 28 C18.62 28 23.24 28 28 28 C28 32.62 28 37.24 28 42 C29.98 42 31.96 42 34 42 C31.69 46.62 29.38 51.24 27 56 C18.09 56 9.18 56 0 56 C0 60.62 0 65.24 0 70 C-9.24 70 -18.48 70 -28 70 C-28 65.38 -28 60.76 -28 56 C-23.38 56 -18.76 56 -14 56 C-14 42.14 -14 28.28 -14 14 C-9.38 14 -4.76 14 0 14 C0 9.38 0 4.76 0 0 Z " fill="#000000" transform="translate(196,210)"/>
<path d="M0 0 C9.24 0 18.48 0 28 0 C28 9.24 28 18.48 28 28 C32.62 28 37.24 28 42 28 C42 32.62 42 37.24 42 42 C32.76 42 23.52 42 14 42 C14 46.62 14 51.24 14 56 C9.38 56 4.76 56 0 56 C0 51.38 0 46.76 0 42 C-9.24 42 -18.48 42 -28 42 C-28 37.38 -28 32.76 -28 28 C-23.38 28 -18.76 28 -14 28 C-14 23.38 -14 18.76 -14 14 C-9.38 14 -4.76 14 0 14 C0 9.38 0 4.76 0 0 Z " fill="#000000" transform="translate(266,420)"/>
<path d="M0 0 C9.24 0 18.48 0 28 0 C28 4.62 28 9.24 28 14 C32.62 14 37.24 14 42 14 C42 18.62 42 23.24 42 28 C32.76 28 23.52 28 14 28 C14 37.24 14 46.48 14 56 C18.62 56 23.24 56 28 56 C28 60.62 28 65.24 28 70 C23.38 70 18.76 70 14 70 C14 79.24 14 88.48 14 98 C9.38 98 4.76 98 0 98 C0 65.66 0 33.32 0 0 Z " fill="#000000" transform="translate(168,126)"/>
<path d="M0 0 C1.21816406 0.03480469 1.21816406 0.03480469 2.4609375 0.0703125 C3.68683594 0.09738281 3.68683594 0.09738281 4.9375 0.125 C5.87722656 0.15980469 5.87722656 0.15980469 6.8359375 0.1953125 C7.79680886 2.08986074 8.75452719 3.98600831 9.7109375 5.8828125 C10.24460937 6.93855469 10.77828125 7.99429687 11.328125 9.08203125 C14.87538801 16.40630229 14.87538801 16.40630229 14.7109375 19.6953125 C13.8359375 22.1953125 13.8359375 22.1953125 11.7109375 24.6328125 C9.53145771 27.05006669 9.53145771 27.05006669 9.96484375 30.04296875 C12.57549831 39.49049444 23.00465136 46.25864837 31.0234375 51.1328125 C34.38231447 52.40172158 35.55200518 52.67308204 38.8359375 51.1953125 C39.82542207 50.01235329 40.78088242 48.80054409 41.7109375 47.5703125 C43.2578125 45.67578125 43.2578125 45.67578125 44.8359375 44.1953125 C51.63602249 43.515304 58.04755651 47.98157416 63.8359375 51.1953125 C64.8359375 52.1953125 64.8359375 52.1953125 65.1484375 55.3828125 C64.72277397 60.5759076 63.0376972 63.1840897 59.2109375 66.6796875 C54.37866075 70.26362609 49.98808807 70.95247234 44.04296875 70.67578125 C24.89298939 67.80678312 8.99704687 54.56538728 -2.2265625 39.5078125 C-2.67974854 38.90259766 -3.13293457 38.29738281 -3.59985352 37.67382812 C-9.66456195 29.17794365 -11.70729063 20.64551873 -10.1640625 10.1953125 C-8.60312336 7.00660502 -6.70978132 4.64869955 -4.1640625 2.1953125 C-2.1640625 0.1953125 -2.1640625 0.1953125 0 0 Z " fill="#040404" transform="translate(274.1640625,265.8046875)"/>
<path d="M0 0 C13.86 0 27.72 0 42 0 C42 13.86 42 27.72 42 42 C28.14 42 14.28 42 0 42 C0 28.14 0 14.28 0 0 Z " fill="#000000" transform="translate(42,518)"/>
<path d="M0 0 C13.86 0 27.72 0 42 0 C42 13.86 42 27.72 42 42 C28.14 42 14.28 42 0 42 C0 28.14 0 14.28 0 0 Z " fill="#FFFFFF" transform="translate(476,476)"/>
<path d="M0 0 C4.62 0 9.24 0 14 0 C14 4.62 14 9.24 14 14 C18.62 14 23.24 14 28 14 C28 23.24 28 32.48 28 42 C32.62 42 37.24 42 42 42 C42 46.62 42 51.24 42 56 C46.62 56 51.24 56 56 56 C56 65.24 56 74.48 56 84 C51.38 84 46.76 84 42 84 C42 79.38 42 74.76 42 70 C37.38 70 32.76 70 28 70 C28 65.38 28 60.76 28 56 C23.38 56 18.76 56 14 56 C14 46.76 14 37.52 14 28 C9.38 28 4.76 28 0 28 C0 18.76 0 9.52 0 0 Z " fill="#000000" transform="translate(224,112)"/>
<path d="M0 0 C4.62 0 9.24 0 14 0 C14 4.62 14 9.24 14 14 C18.62 14 23.24 14 28 14 C28 9.38 28 4.76 28 0 C32.62 0 37.24 0 42 0 C42 4.62 42 9.24 42 14 C46.62 14 51.24 14 56 14 C56 23.24 56 32.48 56 42 C46.76 42 37.52 42 28 42 C28 37.38 28 32.76 28 28 C23.38 28 18.76 28 14 28 C14 32.62 14 37.24 14 42 C9.38 42 4.76 42 0 42 C0 28.14 0 14.28 0 0 Z " fill="#000000" transform="translate(182,70)"/>
<path d="M0 0 C13.86 0 27.72 0 42 0 C42 13.86 42 27.72 42 42 C28.14 42 14.28 42 0 42 C0 28.14 0 14.28 0 0 Z " fill="#000000" transform="translate(518,42)"/>
<path d="M0 0 C13.86 0 27.72 0 42 0 C42 13.86 42 27.72 42 42 C28.14 42 14.28 42 0 42 C0 28.14 0 14.28 0 0 Z " fill="#000000" transform="translate(42,42)"/>
<path d="M0 0 C4.62 0 9.24 0 14 0 C14 4.62 14 9.24 14 14 C18.62 14 23.24 14 28 14 C28 9.38 28 4.76 28 0 C32.62 0 37.24 0 42 0 C42 4.62 42 9.24 42 14 C46.62 14 51.24 14 56 14 C56 18.62 56 23.24 56 28 C46.76 28 37.52 28 28 28 C28 32.62 28 37.24 28 42 C18.76 42 9.52 42 0 42 C0 28.14 0 14.28 0 0 Z " fill="#FFFFFF" transform="translate(252,490)"/>
<path d="M0 0 C13.86 0 27.72 0 42 0 C42 9.24 42 18.48 42 28 C18.9 28 -4.2 28 -28 28 C-28 23.38 -28 18.76 -28 14 C-18.76 14 -9.52 14 0 14 C0 9.38 0 4.76 0 0 Z " fill="#000000" transform="translate(42,448)"/>
<path d="M0 0 C0 2.31 0 4.62 0 7 C4.62 7 9.24 7 14 7 C14 11.62 14 16.24 14 21 C0.14 21 -13.72 21 -28 21 C-28 25.62 -28 30.24 -28 35 C-32.62 35 -37.24 35 -42 35 C-42 39.62 -42 44.24 -42 49 C-46.62 49 -51.24 49 -56 49 C-56 44.38 -56 39.76 -56 35 C-60.62 35 -65.24 35 -70 35 C-70 30.38 -70 25.76 -70 21 C-65.38 21 -60.76 21 -56 21 C-56 19.02 -56 17.04 -56 15 C-54.9584375 14.96261719 -53.916875 14.92523438 -52.84375 14.88671875 C-35.05771242 14.12897536 -14.7424144 0 0 0 Z " fill="#010101" transform="translate(350,371)"/>
<path d="M0 0 C13.86 0 27.72 0 42 0 C42 4.62 42 9.24 42 14 C37.38 14 32.76 14 28 14 C28 18.62 28 23.24 28 28 C23.38 28 18.76 28 14 28 C14 32.62 14 37.24 14 42 C4.76 42 -4.48 42 -14 42 C-14 37.38 -14 32.76 -14 28 C-9.38 28 -4.76 28 0 28 C0 18.76 0 9.52 0 0 Z " fill="#000000" transform="translate(140,546)"/>
<path d="M0 0 C9.24 0 18.48 0 28 0 C28 4.62 28 9.24 28 14 C23.38 14 18.76 14 14 14 C14 18.62 14 23.24 14 28 C9.38 28 4.76 28 0 28 C0 32.62 0 37.24 0 42 C-4.62 42 -9.24 42 -14 42 C-14 46.62 -14 51.24 -14 56 C-18.62 56 -23.24 56 -28 56 C-28 46.76 -28 37.52 -28 28 C-23.38 28 -18.76 28 -14 28 C-14 23.38 -14 18.76 -14 14 C-9.38 14 -4.76 14 0 14 C0 9.38 0 4.76 0 0 Z " fill="#000000" transform="translate(350,420)"/>
<path d="M0 0 C4.62 0 9.24 0 14 0 C14 4.62 14 9.24 14 14 C18.62 14 23.24 14 28 14 C28 9.38 28 4.76 28 0 C32.62 0 37.24 0 42 0 C42 4.62 42 9.24 42 14 C46.62 14 51.24 14 56 14 C56 18.62 56 23.24 56 28 C51.38 28 46.76 28 42 28 C42 32.62 42 37.24 42 42 C37.38 42 32.76 42 28 42 C28 37.38 28 32.76 28 28 C18.76 28 9.52 28 0 28 C0 18.76 0 9.52 0 0 Z " fill="#FFFFFF" transform="translate(406,56)"/>
<path d="M0 0 C9.24 0 18.48 0 28 0 C28 4.62 28 9.24 28 14 C37.24 14 46.48 14 56 14 C56 18.62 56 23.24 56 28 C51.38 28 46.76 28 42 28 C42 32.62 42 37.24 42 42 C37.38 42 32.76 42 28 42 C28 37.38 28 32.76 28 28 C23.38 28 18.76 28 14 28 C14 23.38 14 18.76 14 14 C9.38 14 4.76 14 0 14 C0 9.38 0 4.76 0 0 Z " fill="#000000" transform="translate(280,476)"/>
<path d="M0 0 C4.62 0 9.24 0 14 0 C14 4.62 14 9.24 14 14 C23.24 14 32.48 14 42 14 C42 18.62 42 23.24 42 28 C18.9 28 -4.2 28 -28 28 C-28 23.38 -28 18.76 -28 14 C-18.76 14 -9.52 14 0 14 C0 9.38 0 4.76 0 0 Z " fill="#000000" transform="translate(378,448)"/>
<path d="M0 0 C9.24 0 18.48 0 28 0 C28 9.24 28 18.48 28 28 C9.52 28 -8.96 28 -28 28 C-28 23.38 -28 18.76 -28 14 C-18.76 14 -9.52 14 0 14 C0 9.38 0 4.76 0 0 Z " fill="#FFFFFF" transform="translate(476,224)"/>
<path d="M0 0 C9.24 0 18.48 0 28 0 C28 13.86 28 27.72 28 42 C18.76 42 9.52 42 0 42 C0 28.14 0 14.28 0 0 Z " fill="#000000" transform="translate(378,140)"/>
<path d="M0 0 C9.24 0 18.48 0 28 0 C28 4.62 28 9.24 28 14 C32.62 14 37.24 14 42 14 C42 18.62 42 23.24 42 28 C37.38 28 32.76 28 28 28 C28 37.24 28 46.48 28 56 C23.38 56 18.76 56 14 56 C14 42.14 14 28.28 14 14 C9.38 14 4.76 14 0 14 C0 9.38 0 4.76 0 0 Z " fill="#000000" transform="translate(336,28)"/>
<path d="M0 0 C13.86 0 27.72 0 42 0 C42 4.62 42 9.24 42 14 C32.76 14 23.52 14 14 14 C14 18.62 14 23.24 14 28 C4.76 28 -4.48 28 -14 28 C-14 23.38 -14 18.76 -14 14 C-9.38 14 -4.76 14 0 14 C0 9.38 0 4.76 0 0 Z " fill="#FFFFFF" transform="translate(154,364)"/>
<path d="M0 0 C4.62 0 9.24 0 14 0 C14 9.24 14 18.48 14 28 C9.38 28 4.76 28 0 28 C0 32.62 0 37.24 0 42 C-9.24 42 -18.48 42 -28 42 C-28 37.38 -28 32.76 -28 28 C-23.38 28 -18.76 28 -14 28 C-14 23.38 -14 18.76 -14 14 C-9.38 14 -4.76 14 0 14 C0 9.38 0 4.76 0 0 Z " fill="#000000" transform="translate(574,266)"/>
<path d="M0 0 C9.24 0 18.48 0 28 0 C28 4.62 28 9.24 28 14 C23.38 14 18.76 14 14 14 C14 18.62 14 23.24 14 28 C9.38 28 4.76 28 0 28 C0 32.62 0 37.24 0 42 C-4.62 42 -9.24 42 -14 42 C-14 32.76 -14 23.52 -14 14 C-9.38 14 -4.76 14 0 14 C0 9.38 0 4.76 0 0 Z " fill="#FFFFFF" transform="translate(196,182)"/>
<path d="M0 0 C4.62 0 9.24 0 14 0 C14 4.62 14 9.24 14 14 C18.62 14 23.24 14 28 14 C28 18.62 28 23.24 28 28 C32.62 28 37.24 28 42 28 C42 32.62 42 37.24 42 42 C32.76 42 23.52 42 14 42 C14 37.38 14 32.76 14 28 C9.38 28 4.76 28 0 28 C0 18.76 0 9.52 0 0 Z " fill="#FFFFFF" transform="translate(476,168)"/>
<path d="M0 0 C13.86 0 27.72 0 42 0 C42 4.62 42 9.24 42 14 C32.76 14 23.52 14 14 14 C14 18.62 14 23.24 14 28 C9.38 28 4.76 28 0 28 C0 18.76 0 9.52 0 0 Z " fill="#FFFFFF" transform="translate(434,406)"/>
<path d="M0 0 C9.24 0 18.48 0 28 0 C28 4.62 28 9.24 28 14 C23.38 14 18.76 14 14 14 C14 23.24 14 32.48 14 42 C9.38 42 4.76 42 0 42 C0 28.14 0 14.28 0 0 Z " fill="#FFFFFF" transform="translate(406,378)"/>
<path d="M0 0 C4.62 0 9.24 0 14 0 C14 9.24 14 18.48 14 28 C0.14 28 -13.72 28 -28 28 C-28 23.38 -28 18.76 -28 14 C-18.76 14 -9.52 14 0 14 C0 9.38 0 4.76 0 0 Z " fill="#FFFFFF" transform="translate(112,350)"/>
<path d="M0 0 C4.62 0 9.24 0 14 0 C14 4.62 14 9.24 14 14 C18.62 14 23.24 14 28 14 C28 23.24 28 32.48 28 42 C23.38 42 18.76 42 14 42 C14 37.38 14 32.76 14 28 C9.38 28 4.76 28 0 28 C0 18.76 0 9.52 0 0 Z " fill="#000000" transform="translate(560,140)"/>
<path d="M0 0 C4.62 0 9.24 0 14 0 C14 4.62 14 9.24 14 14 C18.62 14 23.24 14 28 14 C28 23.24 28 32.48 28 42 C23.38 42 18.76 42 14 42 C14 37.38 14 32.76 14 28 C9.38 28 4.76 28 0 28 C0 18.76 0 9.52 0 0 Z " fill="#000000" transform="translate(308,42)"/>
<path d="M0 0 C13.86 0 27.72 0 42 0 C42 9.24 42 18.48 42 28 C37.38 28 32.76 28 28 28 C28 23.38 28 18.76 28 14 C18.76 14 9.52 14 0 14 C0 9.38 0 4.76 0 0 Z " fill="#000000" transform="translate(224,14)"/>
<path d="M0 0 C9.24 0 18.48 0 28 0 C28 4.62 28 9.24 28 14 C37.24 14 46.48 14 56 14 C56 17.96 56 21.92 56 26 C54.84242188 25.65066406 53.68484375 25.30132812 52.4921875 24.94140625 C50.95318161 24.48158132 49.41411593 24.02195648 47.875 23.5625 C47.11445313 23.33240234 46.35390625 23.10230469 45.5703125 22.86523438 C38.06584133 20.63330114 30.92609447 19.79583341 23.125 19.4375 C21.80628906 19.37272461 21.80628906 19.37272461 20.4609375 19.30664062 C18.30744203 19.20130661 16.15373936 19.10022351 14 19 C14 17.35 14 15.7 14 14 C9.38 14 4.76 14 0 14 C0 9.38 0 4.76 0 0 Z " fill="#030303" transform="translate(280,196)"/>
<path d="M0 0 C4.62 0 9.24 0 14 0 C14 4.62 14 9.24 14 14 C18.62 14 23.24 14 28 14 C28 18.62 28 23.24 28 28 C18.76 28 9.52 28 0 28 C0 18.76 0 9.52 0 0 Z " fill="#000000" transform="translate(504,560)"/>
<path d="M0 0 C9.24 0 18.48 0 28 0 C28 9.24 28 18.48 28 28 C23.38 28 18.76 28 14 28 C14 23.38 14 18.76 14 14 C9.38 14 4.76 14 0 14 C0 9.38 0 4.76 0 0 Z " fill="#000000" transform="translate(406,560)"/>
<path d="M0 0 C4.62 0 9.24 0 14 0 C14 4.62 14 9.24 14 14 C18.62 14 23.24 14 28 14 C28 18.62 28 23.24 28 28 C18.76 28 9.52 28 0 28 C0 18.76 0 9.52 0 0 Z " fill="#FFFFFF" transform="translate(378,504)"/>
<path d="M0 0 C4.62 0 9.24 0 14 0 C14 4.62 14 9.24 14 14 C18.62 14 23.24 14 28 14 C28 18.62 28 23.24 28 28 C18.76 28 9.52 28 0 28 C0 18.76 0 9.52 0 0 Z " fill="#FFFFFF" transform="translate(168,462)"/>
<path d="M0 0 C4.62 0 9.24 0 14 0 C14 9.24 14 18.48 14 28 C4.76 28 -4.48 28 -14 28 C-14 23.38 -14 18.76 -14 14 C-9.38 14 -4.76 14 0 14 C0 9.38 0 4.76 0 0 Z " fill="#FFFFFF" transform="translate(140,448)"/>
<path d="M0 0 C4.62 0 9.24 0 14 0 C14 9.24 14 18.48 14 28 C4.76 28 -4.48 28 -14 28 C-14 23.38 -14 18.76 -14 14 C-9.38 14 -4.76 14 0 14 C0 9.38 0 4.76 0 0 Z " fill="#000000" transform="translate(238,406)"/>
<path d="M0 0 C13.86 0 27.72 0 42 0 C42 4.62 42 9.24 42 14 C28.14 14 14.28 14 0 14 C0 9.38 0 4.76 0 0 Z " fill="#FFFFFF" transform="translate(84,392)"/>
<path d="M0 0 C4.62 0 9.24 0 14 0 C14 9.24 14 18.48 14 28 C4.76 28 -4.48 28 -14 28 C-14 23.38 -14 18.76 -14 14 C-9.38 14 -4.76 14 0 14 C0 9.38 0 4.76 0 0 Z " fill="#000000" transform="translate(448,294)"/>
<path d="M0 0 C9.24 0 18.48 0 28 0 C28 4.62 28 9.24 28 14 C23.38 14 18.76 14 14 14 C14 18.62 14 23.24 14 28 C9.38 28 4.76 28 0 28 C0 18.76 0 9.52 0 0 Z " fill="#000000" transform="translate(406,252)"/>
<path d="M0 0 C4.62 0 9.24 0 14 0 C14 4.62 14 9.24 14 14 C18.62 14 23.24 14 28 14 C28 18.62 28 23.24 28 28 C18.76 28 9.52 28 0 28 C0 18.76 0 9.52 0 0 Z " fill="#000000" transform="translate(70,210)"/>
<path d="M0 0 C13.86 0 27.72 0 42 0 C42 4.62 42 9.24 42 14 C28.14 14 14.28 14 0 14 C0 9.38 0 4.76 0 0 Z " fill="#000000" transform="translate(518,196)"/>
<path d="M0 0 C9.24 0 18.48 0 28 0 C28 4.62 28 9.24 28 14 C23.38 14 18.76 14 14 14 C14 18.62 14 23.24 14 28 C9.38 28 4.76 28 0 28 C0 18.76 0 9.52 0 0 Z " fill="#000000" transform="translate(238,196)"/>
<path d="M0 0 C4.62 0 9.24 0 14 0 C14 9.24 14 18.48 14 28 C4.76 28 -4.48 28 -14 28 C-14 23.38 -14 18.76 -14 14 C-9.38 14 -4.76 14 0 14 C0 9.38 0 4.76 0 0 Z " fill="#000000" transform="translate(140,154)"/>
<path d="M0 0 C4.62 0 9.24 0 14 0 C14 4.62 14 9.24 14 14 C18.62 14 23.24 14 28 14 C28 18.62 28 23.24 28 28 C18.76 28 9.52 28 0 28 C0 18.76 0 9.52 0 0 Z " fill="#000000" transform="translate(336,140)"/>
<path d="M0 0 C9.24 0 18.48 0 28 0 C28 4.62 28 9.24 28 14 C23.38 14 18.76 14 14 14 C14 18.62 14 23.24 14 28 C9.38 28 4.76 28 0 28 C0 18.76 0 9.52 0 0 Z " fill="#000000" transform="translate(280,14)"/>
<path d="M0 0 C1.65 0 3.3 0 5 0 C5.37125 0.928125 5.7425 1.85625 6.125 2.8125 C8.30942959 6.5260303 10.06718759 7.42687504 14 9 C14 10.65 14 12.3 14 14 C18.62 14 23.24 14 28 14 C28 18.62 28 23.24 28 28 C18.76 28 9.52 28 0 28 C0 18.76 0 9.52 0 0 Z " fill="#000000" transform="translate(210,378)"/>
<path d="M0 0 C9.24 0 18.48 0 28 0 C28 4.62 28 9.24 28 14 C18.76 14 9.52 14 0 14 C0 9.38 0 4.76 0 0 Z " fill="#000000" transform="translate(168,574)"/>
<path d="M0 0 C9.24 0 18.48 0 28 0 C28 4.62 28 9.24 28 14 C18.76 14 9.52 14 0 14 C0 9.38 0 4.76 0 0 Z " fill="#FFFFFF" transform="translate(406,546)"/>
<path d="M0 0 C4.62 0 9.24 0 14 0 C14 9.24 14 18.48 14 28 C9.38 28 4.76 28 0 28 C0 18.76 0 9.52 0 0 Z " fill="#FFFFFF" transform="translate(560,518)"/>
<path d="M0 0 C9.24 0 18.48 0 28 0 C28 4.62 28 9.24 28 14 C18.76 14 9.52 14 0 14 C0 9.38 0 4.76 0 0 Z " fill="#FFFFFF" transform="translate(434,490)"/>
<path d="M0 0 C9.24 0 18.48 0 28 0 C28 4.62 28 9.24 28 14 C18.76 14 9.52 14 0 14 C0 9.38 0 4.76 0 0 Z " fill="#000000" transform="translate(98,462)"/>
<path d="M0 0 C4.62 0 9.24 0 14 0 C14 9.24 14 18.48 14 28 C9.38 28 4.76 28 0 28 C0 18.76 0 9.52 0 0 Z " fill="#000000" transform="translate(210,434)"/>
<path d="M0 0 C9.24 0 18.48 0 28 0 C28 4.62 28 9.24 28 14 C18.76 14 9.52 14 0 14 C0 9.38 0 4.76 0 0 Z " fill="#000000" transform="translate(98,434)"/>
<path d="M0 0 C9.24 0 18.48 0 28 0 C28 4.62 28 9.24 28 14 C18.76 14 9.52 14 0 14 C0 9.38 0 4.76 0 0 Z " fill="#000000" transform="translate(308,420)"/>
<path d="M0 0 C4.62 0 9.24 0 14 0 C14 9.24 14 18.48 14 28 C9.38 28 4.76 28 0 28 C0 18.76 0 9.52 0 0 Z " fill="#FFFFFF" transform="translate(448,364)"/>
<path d="M0 0 C4.62 0 9.24 0 14 0 C14 9.24 14 18.48 14 28 C9.38 28 4.76 28 0 28 C0 18.76 0 9.52 0 0 Z " fill="#FFFFFF" transform="translate(140,336)"/>
<path d="M0 0 C9.24 0 18.48 0 28 0 C28 4.62 28 9.24 28 14 C18.76 14 9.52 14 0 14 C0 9.38 0 4.76 0 0 Z " fill="#FFFFFF" transform="translate(84,336)"/>
<path d="M0 0 C4.62 0 9.24 0 14 0 C14 9.24 14 18.48 14 28 C9.38 28 4.76 28 0 28 C0 18.76 0 9.52 0 0 Z " fill="#000000" transform="translate(574,308)"/>
<path d="M0 0 C9.24 0 18.48 0 28 0 C28 4.62 28 9.24 28 14 C18.76 14 9.52 14 0 14 C0 9.38 0 4.76 0 0 Z " fill="#FFFFFF" transform="translate(168,280)"/>
<path d="M0 0 C4.62 0 9.24 0 14 0 C14 9.24 14 18.48 14 28 C9.38 28 4.76 28 0 28 C0 18.76 0 9.52 0 0 Z " fill="#FFFFFF" transform="translate(462,196)"/>
<path d="M0 0 C4.62 0 9.24 0 14 0 C14 9.24 14 18.48 14 28 C9.38 28 4.76 28 0 28 C0 18.76 0 9.52 0 0 Z " fill="#000000" transform="translate(322,168)"/>
<path d="M0 0 C9.24 0 18.48 0 28 0 C28 4.62 28 9.24 28 14 C18.76 14 9.52 14 0 14 C0 9.38 0 4.76 0 0 Z " fill="#000000" transform="translate(196,168)"/>
<path d="M0 0 C9.24 0 18.48 0 28 0 C28 4.62 28 9.24 28 14 C18.76 14 9.52 14 0 14 C0 9.38 0 4.76 0 0 Z " fill="#000000" transform="translate(98,154)"/>
<path d="M0 0 C4.62 0 9.24 0 14 0 C14 9.24 14 18.48 14 28 C9.38 28 4.76 28 0 28 C0 18.76 0 9.52 0 0 Z " fill="#000000" transform="translate(70,126)"/>
<path d="M0 0 C4.62 0 9.24 0 14 0 C14 9.24 14 18.48 14 28 C9.38 28 4.76 28 0 28 C0 18.76 0 9.52 0 0 Z " fill="#000000" transform="translate(378,98)"/>
<path d="M0 0 C4.62 0 9.24 0 14 0 C14 9.24 14 18.48 14 28 C9.38 28 4.76 28 0 28 C0 18.76 0 9.52 0 0 Z " fill="#FFFFFF" transform="translate(280,84)"/>
<path d="M0 0 C9.24 0 18.48 0 28 0 C28 4.62 28 9.24 28 14 C18.76 14 9.52 14 0 14 C0 9.38 0 4.76 0 0 Z " fill="#FFFFFF" transform="translate(224,28)"/>
<path d="M0 0 C9.24 0 18.48 0 28 0 C28 4.62 28 9.24 28 14 C18.76 14 9.52 14 0 14 C0 9.38 0 4.76 0 0 Z " fill="#000000" transform="translate(126,14)"/>
<path d="M0 0 C4.62 0 9.24 0 14 0 C14 4.62 14 9.24 14 14 C9.38 14 4.76 14 0 14 C0 9.38 0 4.76 0 0 Z " fill="#000000" transform="translate(238,574)"/>
<path d="M0 0 C4.62 0 9.24 0 14 0 C14 4.62 14 9.24 14 14 C9.38 14 4.76 14 0 14 C0 9.38 0 4.76 0 0 Z " fill="#000000" transform="translate(210,574)"/>
<path d="M0 0 C4.62 0 9.24 0 14 0 C14 4.62 14 9.24 14 14 C9.38 14 4.76 14 0 14 C0 9.38 0 4.76 0 0 Z " fill="#FFFFFF" transform="translate(462,560)"/>
<path d="M0 0 C4.62 0 9.24 0 14 0 C14 4.62 14 9.24 14 14 C9.38 14 4.76 14 0 14 C0 9.38 0 4.76 0 0 Z " fill="#000000" transform="translate(252,560)"/>
<path d="M0 0 C4.62 0 9.24 0 14 0 C14 4.62 14 9.24 14 14 C9.38 14 4.76 14 0 14 C0 9.38 0 4.76 0 0 Z " fill="#000000" transform="translate(336,546)"/>
<path d="M0 0 C4.62 0 9.24 0 14 0 C14 4.62 14 9.24 14 14 C9.38 14 4.76 14 0 14 C0 9.38 0 4.76 0 0 Z " fill="#FFFFFF" transform="translate(252,546)"/>
<path d="M0 0 C4.62 0 9.24 0 14 0 C14 4.62 14 9.24 14 14 C9.38 14 4.76 14 0 14 C0 9.38 0 4.76 0 0 Z " fill="#000000" transform="translate(238,546)"/>
<path d="M0 0 C4.62 0 9.24 0 14 0 C14 4.62 14 9.24 14 14 C9.38 14 4.76 14 0 14 C0 9.38 0 4.76 0 0 Z " fill="#FFFFFF" transform="translate(434,532)"/>
<path d="M0 0 C4.62 0 9.24 0 14 0 C14 4.62 14 9.24 14 14 C9.38 14 4.76 14 0 14 C0 9.38 0 4.76 0 0 Z " fill="#FFFFFF" transform="translate(336,532)"/>
<path d="M0 0 C4.62 0 9.24 0 14 0 C14 4.62 14 9.24 14 14 C9.38 14 4.76 14 0 14 C0 9.38 0 4.76 0 0 Z " fill="#000000" transform="translate(322,532)"/>
<path d="M0 0 C4.62 0 9.24 0 14 0 C14 4.62 14 9.24 14 14 C9.38 14 4.76 14 0 14 C0 9.38 0 4.76 0 0 Z " fill="#000000" transform="translate(196,532)"/>
<path d="M0 0 C4.62 0 9.24 0 14 0 C14 4.62 14 9.24 14 14 C9.38 14 4.76 14 0 14 C0 9.38 0 4.76 0 0 Z " fill="#FFFFFF" transform="translate(448,518)"/>
<path d="M0 0 C4.62 0 9.24 0 14 0 C14 4.62 14 9.24 14 14 C9.38 14 4.76 14 0 14 C0 9.38 0 4.76 0 0 Z " fill="#FFFFFF" transform="translate(420,518)"/>
<path d="M0 0 C4.62 0 9.24 0 14 0 C14 4.62 14 9.24 14 14 C9.38 14 4.76 14 0 14 C0 9.38 0 4.76 0 0 Z " fill="#FFFFFF" transform="translate(224,504)"/>
<path d="M0 0 C4.62 0 9.24 0 14 0 C14 4.62 14 9.24 14 14 C9.38 14 4.76 14 0 14 C0 9.38 0 4.76 0 0 Z " fill="#FFFFFF" transform="translate(560,490)"/>
<path d="M0 0 C4.62 0 9.24 0 14 0 C14 4.62 14 9.24 14 14 C9.38 14 4.76 14 0 14 C0 9.38 0 4.76 0 0 Z " fill="#000000" transform="translate(490,490)"/>
<path d="M0 0 C4.62 0 9.24 0 14 0 C14 4.62 14 9.24 14 14 C9.38 14 4.76 14 0 14 C0 9.38 0 4.76 0 0 Z " fill="#000000" transform="translate(266,490)"/>
<path d="M0 0 C4.62 0 9.24 0 14 0 C14 4.62 14 9.24 14 14 C9.38 14 4.76 14 0 14 C0 9.38 0 4.76 0 0 Z " fill="#FFFFFF" transform="translate(154,490)"/>
<path d="M0 0 C4.62 0 9.24 0 14 0 C14 4.62 14 9.24 14 14 C9.38 14 4.76 14 0 14 C0 9.38 0 4.76 0 0 Z " fill="#000000" transform="translate(560,476)"/>
<path d="M0 0 C4.62 0 9.24 0 14 0 C14 4.62 14 9.24 14 14 C9.38 14 4.76 14 0 14 C0 9.38 0 4.76 0 0 Z " fill="#FFFFFF" transform="translate(266,476)"/>
<path d="M0 0 C4.62 0 9.24 0 14 0 C14 4.62 14 9.24 14 14 C9.38 14 4.76 14 0 14 C0 9.38 0 4.76 0 0 Z " fill="#000000" transform="translate(252,476)"/>
<path d="M0 0 C4.62 0 9.24 0 14 0 C14 4.62 14 9.24 14 14 C9.38 14 4.76 14 0 14 C0 9.38 0 4.76 0 0 Z " fill="#000000" transform="translate(182,462)"/>
<path d="M0 0 C4.62 0 9.24 0 14 0 C14 4.62 14 9.24 14 14 C9.38 14 4.76 14 0 14 C0 9.38 0 4.76 0 0 Z " fill="#000000" transform="translate(126,448)"/>
<path d="M0 0 C4.62 0 9.24 0 14 0 C14 4.62 14 9.24 14 14 C9.38 14 4.76 14 0 14 C0 9.38 0 4.76 0 0 Z " fill="#000000" transform="translate(434,434)"/>
<path d="M0 0 C4.62 0 9.24 0 14 0 C14 4.62 14 9.24 14 14 C9.38 14 4.76 14 0 14 C0 9.38 0 4.76 0 0 Z " fill="#FFFFFF" transform="translate(266,434)"/>
<path d="M0 0 C4.62 0 9.24 0 14 0 C14 4.62 14 9.24 14 14 C9.38 14 4.76 14 0 14 C0 9.38 0 4.76 0 0 Z " fill="#FFFFFF" transform="translate(126,434)"/>
<path d="M0 0 C4.62 0 9.24 0 14 0 C14 4.62 14 9.24 14 14 C9.38 14 4.76 14 0 14 C0 9.38 0 4.76 0 0 Z " fill="#000000" transform="translate(14,420)"/>
<path d="M0 0 C4.62 0 9.24 0 14 0 C14 4.62 14 9.24 14 14 C9.38 14 4.76 14 0 14 C0 9.38 0 4.76 0 0 Z " fill="#FFFFFF" transform="translate(140,406)"/>
<path d="M0 0 C4.62 0 9.24 0 14 0 C14 4.62 14 9.24 14 14 C9.38 14 4.76 14 0 14 C0 9.38 0 4.76 0 0 Z " fill="#000000" transform="translate(532,392)"/>
<path d="M0 0 C4.62 0 9.24 0 14 0 C14 4.62 14 9.24 14 14 C9.38 14 4.76 14 0 14 C0 9.38 0 4.76 0 0 Z " fill="#FFFFFF" transform="translate(168,392)"/>
<path d="M0 0 C4.62 0 9.24 0 14 0 C14 4.62 14 9.24 14 14 C9.38 14 4.76 14 0 14 C0 9.38 0 4.76 0 0 Z " fill="#000000" transform="translate(70,392)"/>
<path d="M0 0 C4.62 0 9.24 0 14 0 C14 4.62 14 9.24 14 14 C9.38 14 4.76 14 0 14 C0 9.38 0 4.76 0 0 Z " fill="#FFFFFF" transform="translate(28,392)"/>
<path d="M0 0 C4.62 0 9.24 0 14 0 C14 4.62 14 9.24 14 14 C9.38 14 4.76 14 0 14 C0 9.38 0 4.76 0 0 Z " fill="#000000" transform="translate(574,350)"/>
<path d="M0 0 C4.62 0 9.24 0 14 0 C14 4.62 14 9.24 14 14 C9.38 14 4.76 14 0 14 C0 9.38 0 4.76 0 0 Z " fill="#FFFFFF" transform="translate(504,336)"/>
<path d="M0 0 C4.62 0 9.24 0 14 0 C14 4.62 14 9.24 14 14 C9.38 14 4.76 14 0 14 C0 9.38 0 4.76 0 0 Z " fill="#FFFFFF" transform="translate(154,322)"/>
<path d="M0 0 C4.62 0 9.24 0 14 0 C14 4.62 14 9.24 14 14 C9.38 14 4.76 14 0 14 C0 9.38 0 4.76 0 0 Z " fill="#000000" transform="translate(518,294)"/>
<path d="M0 0 C4.62 0 9.24 0 14 0 C14 4.62 14 9.24 14 14 C9.38 14 4.76 14 0 14 C0 9.38 0 4.76 0 0 Z " fill="#000000" transform="translate(98,294)"/>
<path d="M0 0 C4.62 0 9.24 0 14 0 C14 4.62 14 9.24 14 14 C9.38 14 4.76 14 0 14 C0 9.38 0 4.76 0 0 Z " fill="#000000" transform="translate(70,280)"/>
<path d="M0 0 C4.62 0 9.24 0 14 0 C14 4.62 14 9.24 14 14 C9.38 14 4.76 14 0 14 C0 9.38 0 4.76 0 0 Z " fill="#FFFFFF" transform="translate(476,266)"/>
<path d="M0 0 C4.62 0 9.24 0 14 0 C14 4.62 14 9.24 14 14 C9.38 14 4.76 14 0 14 C0 9.38 0 4.76 0 0 Z " fill="#000000" transform="translate(434,266)"/>
<path d="M0 0 C4.62 0 9.24 0 14 0 C14 4.62 14 9.24 14 14 C9.38 14 4.76 14 0 14 C0 9.38 0 4.76 0 0 Z " fill="#FFFFFF" transform="translate(434,252)"/>
<path d="M0 0 C4.62 0 9.24 0 14 0 C14 4.62 14 9.24 14 14 C9.38 14 4.76 14 0 14 C0 9.38 0 4.76 0 0 Z " fill="#FFFFFF" transform="translate(98,252)"/>
<path d="M0 0 C4.62 0 9.24 0 14 0 C14 4.62 14 9.24 14 14 C9.38 14 4.76 14 0 14 C0 9.38 0 4.76 0 0 Z " fill="#000000" transform="translate(84,252)"/>
<path d="M0 0 C4.62 0 9.24 0 14 0 C14 4.62 14 9.24 14 14 C9.38 14 4.76 14 0 14 C0 9.38 0 4.76 0 0 Z " fill="#FFFFFF" transform="translate(112,238)"/>
<path d="M0 0 C4.62 0 9.24 0 14 0 C14 4.62 14 9.24 14 14 C9.38 14 4.76 14 0 14 C0 9.38 0 4.76 0 0 Z " fill="#000000" transform="translate(98,238)"/>
<path d="M0 0 C4.62 0 9.24 0 14 0 C14 4.62 14 9.24 14 14 C9.38 14 4.76 14 0 14 C0 9.38 0 4.76 0 0 Z " fill="#FFFFFF" transform="translate(28,238)"/>
<path d="M0 0 C4.62 0 9.24 0 14 0 C14 4.62 14 9.24 14 14 C9.38 14 4.76 14 0 14 C0 9.38 0 4.76 0 0 Z " fill="#FFFFFF" transform="translate(98,224)"/>
<path d="M0 0 C4.62 0 9.24 0 14 0 C14 4.62 14 9.24 14 14 C9.38 14 4.76 14 0 14 C0 9.38 0 4.76 0 0 Z " fill="#FFFFFF" transform="translate(112,210)"/>
<path d="M0 0 C4.62 0 9.24 0 14 0 C14 4.62 14 9.24 14 14 C9.38 14 4.76 14 0 14 C0 9.38 0 4.76 0 0 Z " fill="#000000" transform="translate(98,210)"/>
<path d="M0 0 C4.62 0 9.24 0 14 0 C14 4.62 14 9.24 14 14 C9.38 14 4.76 14 0 14 C0 9.38 0 4.76 0 0 Z " fill="#FFFFFF" transform="translate(84,210)"/>
<path d="M0 0 C4.62 0 9.24 0 14 0 C14 4.62 14 9.24 14 14 C9.38 14 4.76 14 0 14 C0 9.38 0 4.76 0 0 Z " fill="#000000" transform="translate(210,196)"/>
<path d="M0 0 C4.62 0 9.24 0 14 0 C14 4.62 14 9.24 14 14 C9.38 14 4.76 14 0 14 C0 9.38 0 4.76 0 0 Z " fill="#000000" transform="translate(112,196)"/>
<path d="M0 0 C4.62 0 9.24 0 14 0 C14 4.62 14 9.24 14 14 C9.38 14 4.76 14 0 14 C0 9.38 0 4.76 0 0 Z " fill="#FFFFFF" transform="translate(98,196)"/>
<path d="M0 0 C4.62 0 9.24 0 14 0 C14 4.62 14 9.24 14 14 C9.38 14 4.76 14 0 14 C0 9.38 0 4.76 0 0 Z " fill="#000000" transform="translate(504,182)"/>
<path d="M0 0 C4.62 0 9.24 0 14 0 C14 4.62 14 9.24 14 14 C9.38 14 4.76 14 0 14 C0 9.38 0 4.76 0 0 Z " fill="#FFFFFF" transform="translate(448,182)"/>
<path d="M0 0 C4.62 0 9.24 0 14 0 C14 4.62 14 9.24 14 14 C9.38 14 4.76 14 0 14 C0 9.38 0 4.76 0 0 Z " fill="#000000" transform="translate(350,182)"/>
<path d="M0 0 C4.62 0 9.24 0 14 0 C14 4.62 14 9.24 14 14 C9.38 14 4.76 14 0 14 C0 9.38 0 4.76 0 0 Z " fill="#000000" transform="translate(224,182)"/>
<path d="M0 0 C4.62 0 9.24 0 14 0 C14 4.62 14 9.24 14 14 C9.38 14 4.76 14 0 14 C0 9.38 0 4.76 0 0 Z " fill="#FFFFFF" transform="translate(504,168)"/>
<path d="M0 0 C4.62 0 9.24 0 14 0 C14 4.62 14 9.24 14 14 C9.38 14 4.76 14 0 14 C0 9.38 0 4.76 0 0 Z " fill="#FFFFFF" transform="translate(518,140)"/>
<path d="M0 0 C4.62 0 9.24 0 14 0 C14 4.62 14 9.24 14 14 C9.38 14 4.76 14 0 14 C0 9.38 0 4.76 0 0 Z " fill="#000000" transform="translate(434,140)"/>
<path d="M0 0 C4.62 0 9.24 0 14 0 C14 4.62 14 9.24 14 14 C9.38 14 4.76 14 0 14 C0 9.38 0 4.76 0 0 Z " fill="#000000" transform="translate(574,126)"/>
<path d="M0 0 C4.62 0 9.24 0 14 0 C14 4.62 14 9.24 14 14 C9.38 14 4.76 14 0 14 C0 9.38 0 4.76 0 0 Z " fill="#000000" transform="translate(448,126)"/>
<path d="M0 0 C4.62 0 9.24 0 14 0 C14 4.62 14 9.24 14 14 C9.38 14 4.76 14 0 14 C0 9.38 0 4.76 0 0 Z " fill="#FFFFFF" transform="translate(434,126)"/>
<path d="M0 0 C4.62 0 9.24 0 14 0 C14 4.62 14 9.24 14 14 C9.38 14 4.76 14 0 14 C0 9.38 0 4.76 0 0 Z " fill="#000000" transform="translate(350,126)"/>
<path d="M0 0 C4.62 0 9.24 0 14 0 C14 4.62 14 9.24 14 14 C9.38 14 4.76 14 0 14 C0 9.38 0 4.76 0 0 Z " fill="#000000" transform="translate(14,126)"/>
<path d="M0 0 C4.62 0 9.24 0 14 0 C14 4.62 14 9.24 14 14 C9.38 14 4.76 14 0 14 C0 9.38 0 4.76 0 0 Z " fill="#000000" transform="translate(336,112)"/>
<path d="M0 0 C4.62 0 9.24 0 14 0 C14 4.62 14 9.24 14 14 C9.38 14 4.76 14 0 14 C0 9.38 0 4.76 0 0 Z " fill="#FFFFFF" transform="translate(238,112)"/>
<path d="M0 0 C4.62 0 9.24 0 14 0 C14 4.62 14 9.24 14 14 C9.38 14 4.76 14 0 14 C0 9.38 0 4.76 0 0 Z " fill="#FFFFFF" transform="translate(420,98)"/>
<path d="M0 0 C4.62 0 9.24 0 14 0 C14 4.62 14 9.24 14 14 C9.38 14 4.76 14 0 14 C0 9.38 0 4.76 0 0 Z " fill="#000000" transform="translate(350,98)"/>
<path d="M0 0 C4.62 0 9.24 0 14 0 C14 4.62 14 9.24 14 14 C9.38 14 4.76 14 0 14 C0 9.38 0 4.76 0 0 Z " fill="#000000" transform="translate(322,98)"/>
<path d="M0 0 C4.62 0 9.24 0 14 0 C14 4.62 14 9.24 14 14 C9.38 14 4.76 14 0 14 C0 9.38 0 4.76 0 0 Z " fill="#FFFFFF" transform="translate(252,98)"/>
<path d="M0 0 C4.62 0 9.24 0 14 0 C14 4.62 14 9.24 14 14 C9.38 14 4.76 14 0 14 C0 9.38 0 4.76 0 0 Z " fill="#000000" transform="translate(238,98)"/>
<path d="M0 0 C4.62 0 9.24 0 14 0 C14 4.62 14 9.24 14 14 C9.38 14 4.76 14 0 14 C0 9.38 0 4.76 0 0 Z " fill="#FFFFFF" transform="translate(224,98)"/>
<path d="M0 0 C4.62 0 9.24 0 14 0 C14 4.62 14 9.24 14 14 C9.38 14 4.76 14 0 14 C0 9.38 0 4.76 0 0 Z " fill="#FFFFFF" transform="translate(140,98)"/>
<path d="M0 0 C4.62 0 9.24 0 14 0 C14 4.62 14 9.24 14 14 C9.38 14 4.76 14 0 14 C0 9.38 0 4.76 0 0 Z " fill="#FFFFFF" transform="translate(238,84)"/>
<path d="M0 0 C4.62 0 9.24 0 14 0 C14 4.62 14 9.24 14 14 C9.38 14 4.76 14 0 14 C0 9.38 0 4.76 0 0 Z " fill="#FFFFFF" transform="translate(252,70)"/>
<path d="M0 0 C4.62 0 9.24 0 14 0 C14 4.62 14 9.24 14 14 C9.38 14 4.76 14 0 14 C0 9.38 0 4.76 0 0 Z " fill="#FFFFFF" transform="translate(224,70)"/>
<path d="M0 0 C4.62 0 9.24 0 14 0 C14 4.62 14 9.24 14 14 C9.38 14 4.76 14 0 14 C0 9.38 0 4.76 0 0 Z " fill="#FFFFFF" transform="translate(196,70)"/>
<path d="M0 0 C4.62 0 9.24 0 14 0 C14 4.62 14 9.24 14 14 C9.38 14 4.76 14 0 14 C0 9.38 0 4.76 0 0 Z " fill="#FFFFFF" transform="translate(210,56)"/>
<path d="M0 0 C4.62 0 9.24 0 14 0 C14 4.62 14 9.24 14 14 C9.38 14 4.76 14 0 14 C0 9.38 0 4.76 0 0 Z " fill="#000000" transform="translate(196,56)"/>
<path d="M0 0 C4.62 0 9.24 0 14 0 C14 4.62 14 9.24 14 14 C9.38 14 4.76 14 0 14 C0 9.38 0 4.76 0 0 Z " fill="#FFFFFF" transform="translate(182,56)"/>
<path d="M0 0 C4.62 0 9.24 0 14 0 C14 4.62 14 9.24 14 14 C9.38 14 4.76 14 0 14 C0 9.38 0 4.76 0 0 Z " fill="#FFFFFF" transform="translate(448,28)"/>
<path d="M0 0 C4.62 0 9.24 0 14 0 C14 4.62 14 9.24 14 14 C9.38 14 4.76 14 0 14 C0 9.38 0 4.76 0 0 Z " fill="#000000" transform="translate(182,14)"/>
<path d="M0 0 C2.47395833 0.74869792 4.94791667 1.49739583 7.421875 2.24609375 C9.59996864 2.88302113 11.79844581 3.44961145 14 4 C14 6.97 14 9.94 14 13 C9.38 13 4.76 13 0 13 C0 8.71 0 4.42 0 0 Z " fill="#020202" transform="translate(266,379)"/>
<path d="M0 0 C2.64 0 5.28 0 8 0 C9.65 4.62 11.3 9.24 13 14 C8.71 14 4.42 14 0 14 C0 9.38 0 4.76 0 0 Z " fill="#020202" transform="translate(210,322)"/>
<path d="M0 0 C4.62 0 9.24 0 14 0 C14 2.64 14 5.28 14 8 C9.38 9.32 4.76 10.64 0 12 C0 8.04 0 4.08 0 0 Z " fill="#030303" transform="translate(266,210)"/>
</svg>
